<?xml version="1.0" encoding="UTF-8"?>
<!DOCTYPE svg PUBLIC "-//W3C//DTD SVG 1.1//EN" "http://www.w3.org/Graphics/SVG/1.1/DTD/svg11.dtd">
<svg version="1.2" width="46.74mm" height="46.74mm" viewBox="0 0 4674 4674" preserveAspectRatio="xMidYMid" fill-rule="evenodd" stroke-width="28.222" stroke-linejoin="round" xmlns="http://www.w3.org/2000/svg" xmlns:ooo="http://xml.openoffice.org/svg/export" xmlns:xlink="http://www.w3.org/1999/xlink" xmlns:presentation="http://sun.com/xmlns/staroffice/presentation" xmlns:smil="http://www.w3.org/2001/SMIL20/" xmlns:anim="urn:oasis:names:tc:opendocument:xmlns:animation:1.0" xmlns:svg="urn:oasis:names:tc:opendocument:xmlns:svg-compatible:1.0" xml:space="preserve">
 <defs class="ClipPathGroup">
  <clipPath id="presentation_clip_path" clipPathUnits="userSpaceOnUse">
   <rect x="0" y="0" width="4674" height="4674"/>
  </clipPath>
  <clipPath id="presentation_clip_path_shrink" clipPathUnits="userSpaceOnUse">
   <rect x="4" y="4" width="4665" height="4665"/>
  </clipPath>
 </defs>
 <defs class="TextShapeIndex">
  <g ooo:slide="id1" ooo:id-list="id3"/>
 </defs>
 <defs class="EmbeddedBulletChars">
  <g id="bullet-char-template-57356" transform="scale(0.00048828125,-0.00048828125)">
   <path d="M 580,1141 L 1163,571 580,0 -4,571 580,1141 Z"/>
  </g>
  <g id="bullet-char-template-57354" transform="scale(0.00048828125,-0.00048828125)">
   <path d="M 8,1128 L 1137,1128 1137,0 8,0 8,1128 Z"/>
  </g>
  <g id="bullet-char-template-10146" transform="scale(0.00048828125,-0.00048828125)">
   <path d="M 174,0 L 602,739 174,1481 1456,739 174,0 Z M 1358,739 L 309,1346 659,739 1358,739 Z"/>
  </g>
  <g id="bullet-char-template-10132" transform="scale(0.00048828125,-0.00048828125)">
   <path d="M 2015,739 L 1276,0 717,0 1260,543 174,543 174,936 1260,936 717,1481 1274,1481 2015,739 Z"/>
  </g>
  <g id="bullet-char-template-10007" transform="scale(0.00048828125,-0.00048828125)">
   <path d="M 0,-2 C -7,14 -16,27 -25,37 L 356,567 C 262,823 215,952 215,954 215,979 228,992 255,992 264,992 276,990 289,987 310,991 331,999 354,1012 L 381,999 492,748 772,1049 836,1024 860,1049 C 881,1039 901,1025 922,1006 886,937 835,863 770,784 769,783 710,716 594,584 L 774,223 C 774,196 753,168 711,139 L 727,119 C 717,90 699,76 672,76 641,76 570,178 457,381 L 164,-76 C 142,-110 111,-127 72,-127 30,-127 9,-110 8,-76 1,-67 -2,-52 -2,-32 -2,-23 -1,-13 0,-2 Z"/>
  </g>
  <g id="bullet-char-template-10004" transform="scale(0.00048828125,-0.00048828125)">
   <path d="M 285,-33 C 182,-33 111,30 74,156 52,228 41,333 41,471 41,549 55,616 82,672 116,743 169,778 240,778 293,778 328,747 346,684 L 369,508 C 377,444 397,411 428,410 L 1163,1116 C 1174,1127 1196,1133 1229,1133 1271,1133 1292,1118 1292,1087 L 1292,965 C 1292,929 1282,901 1262,881 L 442,47 C 390,-6 338,-33 285,-33 Z"/>
  </g>
  <g id="bullet-char-template-9679" transform="scale(0.00048828125,-0.00048828125)">
   <path d="M 813,0 C 632,0 489,54 383,161 276,268 223,411 223,592 223,773 276,916 383,1023 489,1130 632,1184 813,1184 992,1184 1136,1130 1245,1023 1353,916 1407,772 1407,592 1407,412 1353,268 1245,161 1136,54 992,0 813,0 Z"/>
  </g>
  <g id="bullet-char-template-8226" transform="scale(0.00048828125,-0.00048828125)">
   <path d="M 346,457 C 273,457 209,483 155,535 101,586 74,649 74,723 74,796 101,859 155,911 209,963 273,989 346,989 419,989 480,963 531,910 582,859 608,796 608,723 608,648 583,586 532,535 482,483 420,457 346,457 Z"/>
  </g>
  <g id="bullet-char-template-8211" transform="scale(0.00048828125,-0.00048828125)">
   <path d="M -4,459 L 1135,459 1135,606 -4,606 -4,459 Z"/>
  </g>
  <g id="bullet-char-template-61548" transform="scale(0.00048828125,-0.00048828125)">
   <path d="M 173,740 C 173,903 231,1043 346,1159 462,1274 601,1332 765,1332 928,1332 1067,1274 1183,1159 1299,1043 1357,903 1357,740 1357,577 1299,437 1183,322 1067,206 928,148 765,148 601,148 462,206 346,322 231,437 173,577 173,740 Z"/>
  </g>
 </defs>
 <g>
  <g id="id2" class="Master_Slide">
   <g id="bg-id2" class="Background"/>
   <g id="bo-id2" class="BackgroundObjects"/>
  </g>
 </g>
 <g class="SlideGroup">
  <g>
   <g id="container-id1">
    <g id="id1" class="Slide" clip-path="url(#presentation_clip_path)">
     <g class="Page">
      <g class="com.sun.star.drawing.ClosedBezierShape">
       <g id="id3">
        <rect class="BoundingBox" stroke="none" fill="none" x="0" y="0" width="4680" height="4676"/>
        <path fill="rgb(197,248,0)" stroke="none" d="M 900,4480 C 780,4387 688,4283 625,4168 561,4053 530,3934 530,3812 530,3662 579,3514 678,3371 734,3292 807,3227 895,3177 983,3127 1112,3066 1281,2994 1627,2857 1902,2710 2107,2552 1895,2552 1701,2572 1524,2612 1348,2651 1246,2674 1218,2682 964,2739 798,2768 720,2768 650,2768 579,2757 508,2736 353,2685 230,2597 138,2472 46,2346 0,2197 0,2025 0,1939 18,1831 53,1702 117,1508 212,1359 339,1255 466,1151 611,1099 773,1099 822,1099 904,1113 1016,1142 1108,1171 1191,1219 1265,1287 1339,1355 1436,1461 1556,1605 1669,1748 1771,1867 1863,1960 1955,2053 2064,2147 2191,2240 2128,2039 2050,1861 1958,1707 1867,1553 1814,1465 1800,1443 1701,1278 1630,1149 1588,1055 1546,962 1524,865 1524,765 1524,542 1599,359 1747,215 1895,72 2092,0 2339,0 2586,0 2784,72 2932,215 3080,359 3154,542 3154,765 3154,865 3133,962 3091,1055 3048,1149 2978,1278 2879,1443 2865,1465 2812,1553 2720,1707 2629,1861 2551,2039 2487,2240 2614,2147 2724,2053 2816,1960 2907,1867 3010,1748 3122,1605 3242,1461 3339,1355 3414,1287 3488,1219 3570,1171 3662,1142 3775,1113 3856,1099 3906,1099 4068,1099 4213,1151 4340,1255 4467,1359 4562,1508 4625,1702 4661,1831 4678,1939 4678,2025 4678,2197 4632,2346 4541,2472 4449,2597 4325,2685 4170,2736 4093,2757 4022,2768 3959,2768 3881,2768 3715,2739 3461,2682 3433,2674 3331,2651 3154,2612 2978,2572 2784,2552 2572,2552 2777,2710 3052,2857 3398,2994 3567,3066 3696,3127 3784,3177 3872,3227 3944,3292 4001,3371 4100,3514 4149,3662 4149,3812 4149,3934 4117,4053 4054,4168 3990,4283 3899,4387 3779,4480 3602,4609 3426,4674 3249,4674 3010,4674 2816,4570 2667,4362 2611,4276 2572,4182 2551,4082 2530,3981 2516,3852 2509,3694 2495,3500 2477,3335 2456,3199 2435,3062 2396,2912 2339,2746 2283,2912 2244,3062 2223,3199 2202,3335 2184,3500 2170,3694 2163,3852 2149,3981 2128,4082 2107,4182 2068,4276 2011,4362 1863,4570 1669,4674 1429,4674 1260,4674 1083,4609 900,4480 Z "/>
       </g>
      </g>
     </g>
    </g>
   </g>
  </g>
 </g>
</svg>