<?xml version="1.0" encoding="UTF-8"?>
<!DOCTYPE svg PUBLIC "-//W3C//DTD SVG 1.1//EN" "http://www.w3.org/Graphics/SVG/1.1/DTD/svg11.dtd">
<svg version="1.2" width="60.71mm" height="60.71mm" viewBox="0 0 6071 6071" preserveAspectRatio="xMidYMid" fill-rule="evenodd" stroke-width="28.222" stroke-linejoin="round" xmlns="http://www.w3.org/2000/svg" xmlns:ooo="http://xml.openoffice.org/svg/export" xmlns:xlink="http://www.w3.org/1999/xlink" xmlns:presentation="http://sun.com/xmlns/staroffice/presentation" xmlns:smil="http://www.w3.org/2001/SMIL20/" xmlns:anim="urn:oasis:names:tc:opendocument:xmlns:animation:1.0" xmlns:svg="urn:oasis:names:tc:opendocument:xmlns:svg-compatible:1.0" xml:space="preserve">
 <defs class="ClipPathGroup">
  <clipPath id="presentation_clip_path" clipPathUnits="userSpaceOnUse">
   <rect x="0" y="0" width="6071" height="6071"/>
  </clipPath>
  <clipPath id="presentation_clip_path_shrink" clipPathUnits="userSpaceOnUse">
   <rect x="6" y="6" width="6059" height="6059"/>
  </clipPath>
 </defs>
 <defs class="TextShapeIndex">
  <g ooo:slide="id1" ooo:id-list="id3"/>
 </defs>
 <defs class="EmbeddedBulletChars">
  <g id="bullet-char-template-57356" transform="scale(0.00048828125,-0.00048828125)">
   <path d="M 580,1141 L 1163,571 580,0 -4,571 580,1141 Z"/>
  </g>
  <g id="bullet-char-template-57354" transform="scale(0.00048828125,-0.00048828125)">
   <path d="M 8,1128 L 1137,1128 1137,0 8,0 8,1128 Z"/>
  </g>
  <g id="bullet-char-template-10146" transform="scale(0.00048828125,-0.00048828125)">
   <path d="M 174,0 L 602,739 174,1481 1456,739 174,0 Z M 1358,739 L 309,1346 659,739 1358,739 Z"/>
  </g>
  <g id="bullet-char-template-10132" transform="scale(0.00048828125,-0.00048828125)">
   <path d="M 2015,739 L 1276,0 717,0 1260,543 174,543 174,936 1260,936 717,1481 1274,1481 2015,739 Z"/>
  </g>
  <g id="bullet-char-template-10007" transform="scale(0.00048828125,-0.00048828125)">
   <path d="M 0,-2 C -7,14 -16,27 -25,37 L 356,567 C 262,823 215,952 215,954 215,979 228,992 255,992 264,992 276,990 289,987 310,991 331,999 354,1012 L 381,999 492,748 772,1049 836,1024 860,1049 C 881,1039 901,1025 922,1006 886,937 835,863 770,784 769,783 710,716 594,584 L 774,223 C 774,196 753,168 711,139 L 727,119 C 717,90 699,76 672,76 641,76 570,178 457,381 L 164,-76 C 142,-110 111,-127 72,-127 30,-127 9,-110 8,-76 1,-67 -2,-52 -2,-32 -2,-23 -1,-13 0,-2 Z"/>
  </g>
  <g id="bullet-char-template-10004" transform="scale(0.00048828125,-0.00048828125)">
   <path d="M 285,-33 C 182,-33 111,30 74,156 52,228 41,333 41,471 41,549 55,616 82,672 116,743 169,778 240,778 293,778 328,747 346,684 L 369,508 C 377,444 397,411 428,410 L 1163,1116 C 1174,1127 1196,1133 1229,1133 1271,1133 1292,1118 1292,1087 L 1292,965 C 1292,929 1282,901 1262,881 L 442,47 C 390,-6 338,-33 285,-33 Z"/>
  </g>
  <g id="bullet-char-template-9679" transform="scale(0.00048828125,-0.00048828125)">
   <path d="M 813,0 C 632,0 489,54 383,161 276,268 223,411 223,592 223,773 276,916 383,1023 489,1130 632,1184 813,1184 992,1184 1136,1130 1245,1023 1353,916 1407,772 1407,592 1407,412 1353,268 1245,161 1136,54 992,0 813,0 Z"/>
  </g>
  <g id="bullet-char-template-8226" transform="scale(0.00048828125,-0.00048828125)">
   <path d="M 346,457 C 273,457 209,483 155,535 101,586 74,649 74,723 74,796 101,859 155,911 209,963 273,989 346,989 419,989 480,963 531,910 582,859 608,796 608,723 608,648 583,586 532,535 482,483 420,457 346,457 Z"/>
  </g>
  <g id="bullet-char-template-8211" transform="scale(0.00048828125,-0.00048828125)">
   <path d="M -4,459 L 1135,459 1135,606 -4,606 -4,459 Z"/>
  </g>
  <g id="bullet-char-template-61548" transform="scale(0.00048828125,-0.00048828125)">
   <path d="M 173,740 C 173,903 231,1043 346,1159 462,1274 601,1332 765,1332 928,1332 1067,1274 1183,1159 1299,1043 1357,903 1357,740 1357,577 1299,437 1183,322 1067,206 928,148 765,148 601,148 462,206 346,322 231,437 173,577 173,740 Z"/>
  </g>
 </defs>
 <g>
  <g id="id2" class="Master_Slide">
   <g id="bg-id2" class="Background"/>
   <g id="bo-id2" class="BackgroundObjects"/>
  </g>
 </g>
 <g class="SlideGroup">
  <g>
   <g id="container-id1">
    <g id="id1" class="Slide" clip-path="url(#presentation_clip_path)">
     <g class="Page">
      <g class="com.sun.star.drawing.ClosedBezierShape">
       <g id="id3">
        <rect class="BoundingBox" stroke="none" fill="none" x="0" y="2" width="6069" height="6070"/>
        <path fill="rgb(0,75,173)" stroke="none" d="M 688,2525 C 994,2525 1329,2593 1694,2728 2058,2863 2440,2942 2840,2966 2534,2695 2208,2478 1861,2313 1514,2149 1229,1955 1006,1731 888,1614 803,1478 750,1326 697,1173 741,1026 882,885 976,791 1082,744 1200,744 1294,744 1388,770 1482,823 1576,876 1658,938 1729,1008 1952,1231 2146,1517 2311,1864 2476,2210 2693,2537 2964,2842 2940,2443 2861,2060 2725,1696 2590,1331 2523,996 2523,690 2523,526 2558,370 2628,223 2699,76 2834,3 3034,3 3234,3 3369,76 3440,223 3510,370 3546,526 3546,690 3546,996 3478,1331 3343,1696 3208,2060 3128,2443 3105,2842 3375,2537 3593,2210 3757,1864 3922,1517 4116,1231 4339,1008 4410,938 4492,876 4586,823 4680,770 4774,744 4869,744 4986,744 5092,791 5186,885 5327,1026 5371,1173 5318,1326 5265,1478 5180,1614 5063,1731 4839,1955 4554,2149 4207,2313 3860,2478 3534,2695 3228,2966 3628,2942 4010,2863 4375,2728 4739,2593 5074,2525 5380,2525 5545,2525 5701,2560 5848,2631 5994,2701 6068,2837 6068,3036 6068,3236 5994,3372 5848,3442 5701,3513 5545,3548 5380,3548 5074,3548 4739,3480 4375,3345 4010,3210 3628,3131 3228,3107 3534,3377 3860,3595 4207,3760 4554,3924 4839,4118 5063,4342 5180,4459 5265,4595 5318,4748 5371,4900 5327,5047 5186,5188 5092,5283 4986,5330 4869,5330 4774,5330 4680,5303 4586,5250 4492,5197 4410,5136 4339,5065 4116,4842 3922,4556 3757,4210 3593,3863 3375,3536 3105,3230 3128,3630 3208,4013 3343,4377 3478,4742 3546,5077 3546,5383 3546,5547 3510,5703 3440,5850 3369,5997 3234,6071 3034,6071 2834,6071 2699,5997 2628,5850 2558,5703 2523,5547 2523,5383 2523,5077 2590,4742 2725,4377 2861,4013 2940,3630 2964,3230 2693,3536 2476,3863 2311,4210 2146,4556 1952,4842 1729,5065 1658,5136 1576,5197 1482,5250 1388,5303 1294,5330 1200,5330 1082,5330 976,5283 882,5188 741,5047 697,4900 750,4748 803,4595 888,4459 1006,4342 1229,4118 1514,3924 1861,3760 2208,3595 2534,3377 2840,3107 2440,3131 2058,3210 1694,3345 1329,3480 994,3548 688,3548 523,3548 368,3513 221,3442 74,3372 0,3236 0,3036 0,2837 74,2701 221,2631 368,2560 523,2525 688,2525 Z "/>
       </g>
      </g>
     </g>
    </g>
   </g>
  </g>
 </g>
</svg>