<svg xmlns="http://www.w3.org/2000/svg" xmlns:xlink="http://www.w3.org/1999/xlink" zoomAndPan="magnify" preserveAspectRatio="xMidYMid meet" version="1.0" viewBox="101.92 155.92 179.27 200.15"><defs><g/><clipPath id="7cb3b9dd9a"><rect x="0" width="185" y="0" height="354"/></clipPath><clipPath id="518f74b30a"><rect x="0" width="169" y="0" height="354"/></clipPath></defs><g transform="matrix(1, 0, 0, 1, 100, 47)"><g clip-path="url(#7cb3b9dd9a)"><g fill="#db0227" fill-opacity="1"><g transform="translate(27.739072, 246.521948)"><g><path d="M 37.777344 62.550781 C 24.367188 62.550781 13.226562 60.417969 4.367188 56.15625 C -4.390625 51.945312 -11.175781 46.925781 -15.988281 41.101562 L -0.464844 28.277344 L -15.546875 41.617188 C -22.558594 33.691406 -25.980469 24.878906 -25.8125 15.179688 C -25.652344 5.882812 -22.65625 -2.183594 -16.820312 -9.019531 C -13.554688 -12.84375 -9.722656 -15.769531 -5.324219 -17.796875 C -0.933594 -19.820312 3.777344 -20.832031 8.808594 -20.832031 C 13.175781 -20.832031 17.207031 -20.183594 20.90625 -18.890625 C 25.589844 -17.25 29.566406 -14.671875 32.835938 -11.152344 C 36.382812 -7.332031 39.460938 -2.453125 42.070312 3.480469 L 23.640625 11.589844 L 41.886719 3.074219 C 42.480469 4.34375 43.046875 5.363281 43.582031 6.132812 C 43.738281 6.355469 43.871094 6.53125 43.984375 6.65625 C 44 6.675781 44.007812 6.683594 44.007812 6.6875 C 43.980469 6.65625 43.941406 6.621094 43.894531 6.582031 C 43.066406 5.878906 42.238281 5.398438 41.398438 5.148438 C 41.316406 5.121094 41.242188 5.101562 41.179688 5.089844 L 41.191406 5.089844 C 41.382812 5.113281 41.632812 5.125 41.949219 5.125 C 41.667969 5.125 41.472656 5.148438 41.375 5.191406 C 41.886719 4.964844 42.558594 4.476562 43.390625 3.726562 C 46.804688 0.636719 50.085938 -3.507812 53.242188 -8.707031 C 56.746094 -14.480469 59.589844 -20.316406 61.769531 -26.21875 L 80.65625 -19.238281 L 94.328125 -4.453125 C 86.109375 3.152344 77.824219 8.417969 69.484375 11.347656 C 61.609375 14.117188 54.207031 15.5 47.28125 15.5 C 37.15625 15.5 28.363281 13.980469 20.90625 10.941406 C 11.855469 7.25 4.90625 1.511719 0.0585938 -6.277344 C -7.910156 -19.074219 -9.78125 -35.3125 -5.546875 -54.992188 L 0.566406 -80.882812 L 20.164062 -76.253906 L 0.351562 -79.855469 C 0.511719 -80.730469 0.605469 -81.449219 0.636719 -82.003906 C 0.644531 -82.117188 0.648438 -82.195312 0.644531 -82.230469 C 0.648438 -82.105469 0.664062 -81.945312 0.695312 -81.75 C 1.011719 -79.53125 1.839844 -77.496094 3.183594 -75.648438 C 4.261719 -74.167969 5.507812 -73.023438 6.929688 -72.210938 L 16.917969 -89.695312 L 7.441406 -71.929688 C 5.691406 -72.863281 4.179688 -73.59375 2.917969 -74.121094 C -2.910156 -76.550781 -7.085938 -80.570312 -9.613281 -86.183594 C -11.726562 -90.878906 -12.246094 -95.914062 -11.171875 -101.292969 L 8.574219 -97.34375 L -11.253906 -100.84375 C -10.453125 -105.378906 -8.683594 -109.4375 -5.941406 -113.023438 C -3.355469 -116.40625 -0.0859375 -119.117188 3.875 -121.15625 C 7.179688 -122.859375 10.9375 -124.476562 15.136719 -126.003906 L 15.464844 -126.121094 L 15.792969 -126.230469 C 22.339844 -128.355469 29.464844 -130.433594 37.171875 -132.460938 C 46.191406 -134.835938 53.964844 -136.023438 60.492188 -136.023438 C 70.070312 -136.023438 77.480469 -133.398438 82.726562 -128.152344 C 86.714844 -124.167969 89.035156 -119.226562 89.691406 -113.328125 C 90.066406 -109.925781 89.828125 -106.261719 88.976562 -102.335938 L 75.550781 -39.375 C 74.957031 -36.703125 74.601562 -34.613281 74.484375 -33.097656 C 74.453125 -32.730469 74.441406 -32.492188 74.449219 -32.382812 C 74.425781 -32.855469 74.320312 -33.429688 74.136719 -34.109375 C 73.234375 -37.457031 71.261719 -40.167969 68.222656 -42.25 C 65.835938 -43.886719 63.414062 -44.703125 60.957031 -44.703125 C 61.71875 -44.703125 62.292969 -44.757812 62.683594 -44.871094 C 62.632812 -44.855469 62.535156 -44.792969 62.382812 -44.6875 C 63.484375 -45.472656 64.425781 -46.535156 65.207031 -47.882812 C 66.742188 -50.523438 67.984375 -53.300781 68.933594 -56.210938 C 70.222656 -60.140625 71.285156 -63.640625 72.121094 -66.71875 C 72.773438 -69.078125 73.011719 -71.648438 72.839844 -74.4375 C 72.859375 -74.140625 72.949219 -73.835938 73.113281 -73.519531 C 73.160156 -73.429688 73.195312 -73.371094 73.21875 -73.339844 C 73.140625 -73.4375 73.015625 -73.5625 72.839844 -73.71875 C 68.851562 -77.308594 65.816406 -81.792969 63.730469 -87.175781 C 61.601562 -92.679688 60.886719 -98.398438 61.585938 -104.332031 L 81.582031 -101.980469 L 61.515625 -103.652344 C 61.992188 -109.367188 63.535156 -114.53125 66.144531 -119.140625 C 68.972656 -124.132812 72.859375 -128.1875 77.808594 -131.304688 C 85.941406 -136.425781 95.15625 -138.421875 105.449219 -137.292969 C 115.648438 -136.175781 124.640625 -131.859375 132.421875 -124.347656 L 118.433594 -109.859375 L 131.933594 -124.804688 C 139.210938 -118.226562 144.773438 -109.613281 148.617188 -98.964844 C 152.203125 -89.027344 153.792969 -78.4375 153.390625 -67.191406 C 153.035156 -56.851562 151.492188 -46.140625 148.765625 -35.054688 C 146.046875 -24 142.230469 -13.300781 137.324219 -2.957031 C 132.203125 7.835938 125.863281 17.558594 118.3125 26.214844 C 108.871094 37.363281 97.417969 46.179688 83.957031 52.671875 C 70.300781 59.257812 54.90625 62.550781 37.777344 62.550781 Z M 37.777344 22.277344 C 48.773438 22.277344 58.332031 20.316406 66.460938 16.394531 C 74.789062 12.382812 81.957031 6.828125 87.964844 -0.257812 C 93.082031 -6.125 97.40625 -12.777344 100.9375 -20.222656 C 104.683594 -28.109375 107.589844 -36.261719 109.660156 -44.675781 C 111.722656 -53.058594 112.882812 -61.042969 113.144531 -68.628906 C 113.359375 -74.6875 112.558594 -80.242188 110.734375 -85.292969 C 109.167969 -89.632812 107.238281 -92.839844 104.9375 -94.917969 L 104.6875 -95.140625 L 104.449219 -95.375 C 103.269531 -96.511719 102.140625 -97.140625 101.058594 -97.257812 C 100.074219 -97.367188 99.476562 -97.355469 99.265625 -97.222656 C 100.042969 -97.710938 100.6875 -98.40625 101.195312 -99.304688 C 101.394531 -99.65625 101.539062 -99.988281 101.628906 -100.304688 L 101.652344 -100.308594 L 101.621094 -99.964844 L 101.582031 -99.625 C 101.664062 -100.308594 101.566406 -101.003906 101.289062 -101.714844 C 101.058594 -102.308594 100.496094 -103.011719 99.597656 -103.820312 C 103.558594 -100.296875 106.675781 -96.324219 108.941406 -91.910156 C 111.347656 -87.226562 112.710938 -82.226562 113.039062 -76.910156 C 113.484375 -69.652344 112.796875 -62.722656 110.976562 -56.121094 C 109.960938 -52.398438 108.707031 -48.25 107.210938 -43.683594 C 105.382812 -38.09375 102.992188 -32.757812 100.046875 -27.675781 C 96.34375 -21.296875 91.570312 -16.023438 85.71875 -11.867188 C 78.75 -6.910156 70.496094 -4.429688 60.957031 -4.429688 C 55.097656 -4.429688 49.933594 -5.964844 45.460938 -9.027344 C 40.335938 -12.539062 36.9375 -17.398438 35.257812 -23.601562 C 34.265625 -27.273438 33.957031 -31.492188 34.332031 -36.257812 C 34.601562 -39.652344 35.210938 -43.488281 36.164062 -47.773438 L 49.621094 -110.890625 C 49.636719 -110.949219 49.644531 -110.988281 49.644531 -111.003906 C 49.636719 -110.941406 49.625 -110.855469 49.617188 -110.753906 C 49.570312 -110.199219 49.585938 -109.574219 49.664062 -108.882812 C 50.046875 -105.417969 51.578125 -102.351562 54.25 -99.675781 C 56.238281 -97.6875 58.386719 -96.410156 60.6875 -95.839844 C 60.957031 -95.773438 61.15625 -95.734375 61.28125 -95.722656 C 61.101562 -95.738281 60.839844 -95.75 60.492188 -95.75 C 57.4375 -95.75 53.082031 -95.003906 47.421875 -93.515625 C 40.453125 -91.679688 34.058594 -89.820312 28.242188 -87.929688 L 22.019531 -107.078125 L 28.898438 -88.152344 C 26.300781 -87.210938 24.109375 -86.277344 22.316406 -85.351562 C 23.726562 -86.078125 24.96875 -87.148438 26.046875 -88.558594 C 27.28125 -90.175781 28.070312 -91.933594 28.40625 -93.84375 L 28.367188 -93.621094 L 28.320312 -93.394531 C 28.933594 -96.453125 28.53125 -99.558594 27.113281 -102.710938 C 26.140625 -104.871094 24.78125 -106.746094 23.035156 -108.332031 C 21.632812 -109.605469 20.089844 -110.59375 18.40625 -111.296875 C 20.851562 -110.277344 23.511719 -109 26.394531 -107.464844 L 26.65625 -107.324219 L 26.910156 -107.179688 C 30.492188 -105.132812 33.441406 -102.515625 35.753906 -99.335938 C 38.332031 -95.792969 39.9375 -91.828125 40.5625 -87.445312 C 41.179688 -83.125 40.984375 -78.191406 39.976562 -72.652344 L 39.882812 -72.132812 L 33.824219 -46.523438 C 32.707031 -41.328125 32.308594 -36.921875 32.628906 -33.308594 C 32.847656 -30.855469 33.386719 -28.941406 34.246094 -27.5625 C 34.496094 -27.160156 35.117188 -26.757812 36.109375 -26.351562 C 38.695312 -25.300781 42.417969 -24.773438 47.28125 -24.773438 C 49.628906 -24.773438 52.578125 -25.398438 56.136719 -26.648438 C 59.226562 -27.734375 62.84375 -30.191406 66.984375 -34.019531 L 99.542969 -12.257812 C 96.472656 -3.941406 92.515625 4.207031 87.675781 12.183594 C 82.484375 20.734375 76.730469 27.871094 70.410156 33.589844 C 61.707031 41.464844 52.222656 45.398438 41.949219 45.398438 C 32.214844 45.398438 24.148438 42.675781 17.757812 37.222656 C 12.910156 33.089844 8.789062 27.382812 5.394531 20.105469 L 5.300781 19.902344 L 5.210938 19.699219 C 4.421875 17.90625 3.792969 16.757812 3.320312 16.25 C 4.582031 17.605469 6.007812 18.5625 7.601562 19.121094 C 8.027344 19.273438 8.417969 19.371094 8.765625 19.425781 L 8.808594 19.441406 C 9.664062 19.441406 10.570312 19.222656 11.523438 18.78125 C 12.484375 18.339844 13.246094 17.789062 13.808594 17.128906 C 14.03125 16.867188 14.210938 16.550781 14.347656 16.179688 C 14.398438 16.039062 14.433594 15.910156 14.453125 15.796875 C 14.457031 15.777344 14.460938 15.765625 14.460938 15.761719 C 14.457031 15.792969 14.457031 15.828125 14.457031 15.875 C 14.464844 15.355469 14.378906 14.882812 14.203125 14.453125 C 14.183594 14.402344 14.164062 14.359375 14.148438 14.324219 C 14.148438 14.328125 14.15625 14.339844 14.171875 14.363281 C 14.269531 14.519531 14.421875 14.710938 14.617188 14.933594 L 14.84375 15.1875 L 15.0625 15.453125 C 16.121094 16.734375 18.375 18.207031 21.824219 19.863281 C 25.167969 21.472656 30.488281 22.277344 37.777344 22.277344 Z M 37.777344 22.277344 "/></g></g></g><g fill="#db0227" fill-opacity="1"><g transform="translate(27.739072, 246.521948)"><g><path d="M 37.78125 42.40625 C 27.425781 42.40625 19.195312 40.9375 13.09375 38 C 6.988281 35.070312 2.46875 31.832031 -0.46875 28.28125 C -4.019531 24.257812 -5.753906 20.007812 -5.671875 15.53125 C -5.597656 11.050781 -4.207031 7.226562 -1.5 4.0625 C 1.195312 0.894531 4.632812 -0.6875 8.8125 -0.6875 C 12.976562 -0.6875 16.066406 0.390625 18.078125 2.546875 C 20.085938 4.710938 21.941406 7.726562 23.640625 11.59375 C 25.804688 16.226562 28.203125 19.664062 30.828125 21.90625 C 33.453125 24.144531 37.160156 25.265625 41.953125 25.265625 C 47.046875 25.265625 52.023438 23.0625 56.890625 18.65625 C 61.765625 14.25 66.285156 8.609375 70.453125 1.734375 C 74.628906 -5.140625 78.03125 -12.128906 80.65625 -19.234375 C 74.476562 -13.515625 68.53125 -9.648438 62.8125 -7.640625 C 57.09375 -5.640625 51.914062 -4.640625 47.28125 -4.640625 C 32.289062 -4.640625 22.242188 -8.734375 17.140625 -16.921875 C 12.046875 -25.109375 11.046875 -36.382812 14.140625 -50.75 L 20.15625 -76.25 C 20.78125 -79.644531 20.9375 -82.425781 20.625 -84.59375 C 20.3125 -86.757812 19.078125 -88.457031 16.921875 -89.6875 C 14.597656 -90.925781 12.507812 -91.929688 10.65625 -92.703125 C 8.800781 -93.472656 8.109375 -95.019531 8.578125 -97.34375 C 9.035156 -99.96875 10.539062 -101.9375 13.09375 -103.25 C 15.644531 -104.5625 18.617188 -105.835938 22.015625 -107.078125 C 28.191406 -109.085938 34.953125 -111.054688 42.296875 -112.984375 C 49.640625 -114.910156 55.703125 -115.875 60.484375 -115.875 C 64.503906 -115.875 67.171875 -115.21875 68.484375 -113.90625 C 69.796875 -112.59375 70.066406 -110.160156 69.296875 -106.609375 L 55.859375 -43.578125 C 54.304688 -36.617188 53.914062 -31.707031 54.6875 -28.84375 C 55.46875 -25.988281 57.554688 -24.5625 60.953125 -24.5625 C 66.203125 -24.5625 70.566406 -25.796875 74.046875 -28.265625 C 77.523438 -30.742188 80.382812 -33.914062 82.625 -37.78125 C 84.863281 -41.644531 86.675781 -45.695312 88.0625 -49.9375 C 89.457031 -54.1875 90.617188 -58.015625 91.546875 -61.421875 C 92.785156 -65.898438 93.25 -70.648438 92.9375 -75.671875 C 92.625 -80.691406 90.382812 -85.054688 86.21875 -88.765625 C 84.675781 -90.160156 83.441406 -92.050781 82.515625 -94.4375 C 81.585938 -96.832031 81.273438 -99.347656 81.578125 -101.984375 C 82.046875 -107.546875 84.363281 -111.640625 88.53125 -114.265625 C 92.707031 -116.890625 97.613281 -117.890625 103.25 -117.265625 C 108.894531 -116.648438 113.957031 -114.179688 118.4375 -109.859375 C 123.21875 -105.535156 126.960938 -99.625 129.671875 -92.125 C 132.378906 -84.632812 133.578125 -76.5625 133.265625 -67.90625 C 132.953125 -58.945312 131.597656 -49.597656 129.203125 -39.859375 C 126.804688 -30.128906 123.445312 -20.707031 119.125 -11.59375 C 114.800781 -2.476562 109.472656 5.710938 103.140625 12.984375 C 95.410156 22.097656 86.097656 29.28125 75.203125 34.53125 C 64.316406 39.78125 51.84375 42.40625 37.78125 42.40625 Z M 37.78125 42.40625 "/></g></g></g></g></g><g transform="matrix(1, 0, 0, 1, 107, 47)"><g clip-path="url(#518f74b30a)"><g fill="#fee4e3" fill-opacity="1"><g transform="translate(20.460601, 244.37184)"><g><path d="M 37.9375 54.667969 C 25.707031 54.667969 15.699219 52.796875 7.917969 49.054688 C 0.195312 45.339844 -5.703125 41.015625 -9.773438 36.085938 L -0.464844 28.394531 L -9.511719 36.398438 C -15.152344 30.019531 -17.90625 23.015625 -17.777344 15.386719 C -17.648438 7.996094 -15.289062 1.613281 -10.695312 -3.765625 C -5.570312 -9.769531 0.941406 -12.773438 8.84375 -12.773438 C 16.542969 -12.773438 22.597656 -10.402344 27.003906 -5.65625 C 29.945312 -2.488281 32.539062 1.652344 34.792969 6.773438 L 23.742188 11.636719 L 34.683594 6.53125 C 36.117188 9.601562 37.484375 11.695312 38.792969 12.808594 L 38.796875 12.804688 C 38.898438 12.859375 39.039062 12.914062 39.21875 12.96875 C 39.945312 13.1875 40.914062 13.296875 42.128906 13.296875 C 44.148438 13.296875 46.453125 12.125 49.039062 9.78125 C 53.054688 6.148438 56.855469 1.382812 60.433594 -4.519531 C 64.222656 -10.761719 67.300781 -17.089844 69.671875 -23.503906 L 81 -19.320312 L 89.199219 -10.453125 C 81.765625 -3.582031 74.394531 1.140625 67.078125 3.710938 C 60.042969 6.183594 53.511719 7.421875 47.480469 7.421875 C 27.960938 7.421875 14.457031 1.410156 6.972656 -10.609375 C 0.132812 -21.597656 -1.394531 -35.898438 2.394531 -53.511719 L 8.5 -79.355469 L 20.25 -76.578125 L 8.371094 -78.738281 C 8.757812 -80.867188 8.886719 -82.367188 8.761719 -83.25 C 8.890625 -82.355469 9.230469 -81.527344 9.785156 -80.761719 C 10.179688 -80.21875 10.585938 -79.828125 11 -79.59375 L 16.992188 -90.078125 L 11.308594 -79.421875 C 9.320312 -80.484375 7.570312 -81.328125 6.0625 -81.957031 C 2.191406 -83.570312 -0.570312 -86.214844 -2.226562 -89.894531 C -3.632812 -93.019531 -3.96875 -96.433594 -3.230469 -100.125 L 8.613281 -97.757812 L -3.28125 -99.855469 C -2.707031 -103.105469 -1.445312 -106.007812 0.503906 -108.554688 C 2.359375 -110.980469 4.730469 -112.9375 7.621094 -114.425781 C 10.636719 -115.980469 14.089844 -117.464844 17.984375 -118.882812 L 18.179688 -118.953125 L 18.378906 -119.015625 C 24.804688 -121.105469 31.8125 -123.148438 39.40625 -125.144531 C 47.78125 -127.351562 54.898438 -128.453125 60.75 -128.453125 C 68.117188 -128.453125 73.640625 -126.613281 77.316406 -122.9375 C 81.746094 -118.511719 83.101562 -112.367188 81.394531 -104.503906 L 67.902344 -41.238281 C 67.234375 -38.230469 66.828125 -35.777344 66.675781 -33.878906 C 66.621094 -33.160156 66.605469 -32.574219 66.628906 -32.117188 L 66.585938 -32.128906 C 66.203125 -33.558594 65.308594 -34.75 63.910156 -35.710938 C 62.898438 -36.402344 62 -36.746094 61.214844 -36.746094 C 63.921875 -36.746094 65.972656 -37.242188 67.367188 -38.238281 C 69.4375 -39.707031 71.15625 -41.628906 72.53125 -43.996094 C 74.359375 -47.144531 75.835938 -50.449219 76.972656 -53.914062 C 78.304688 -57.992188 79.410156 -61.636719 80.289062 -64.859375 C 81.179688 -68.085938 81.511719 -71.550781 81.28125 -75.253906 C 81.175781 -76.980469 80.269531 -78.601562 78.5625 -80.121094 C 75.546875 -82.835938 73.226562 -86.292969 71.601562 -90.488281 C 69.949219 -94.757812 69.394531 -99.203125 69.9375 -103.824219 L 81.929688 -102.414062 L 69.898438 -103.414062 C 70.277344 -107.96875 71.484375 -112.042969 73.515625 -115.632812 C 75.679688 -119.457031 78.667969 -122.566406 82.480469 -124.96875 C 89.042969 -129.101562 96.554688 -130.703125 105.007812 -129.777344 C 113.40625 -128.855469 120.847656 -125.269531 127.324219 -119.011719 L 118.9375 -110.328125 L 127.03125 -119.289062 C 133.335938 -113.59375 138.1875 -106.039062 141.585938 -96.617188 C 144.828125 -87.628906 146.269531 -78.011719 145.902344 -67.765625 C 145.5625 -57.941406 144.089844 -47.734375 141.488281 -37.148438 C 138.886719 -26.582031 135.238281 -16.351562 130.546875 -6.460938 C 125.726562 3.699219 119.769531 12.84375 112.675781 20.972656 C 103.886719 31.34375 93.253906 39.539062 80.773438 45.558594 C 68.179688 51.632812 53.898438 54.667969 37.9375 54.667969 Z M 37.9375 30.519531 C 50.21875 30.519531 61 28.28125 70.285156 23.804688 C 79.683594 19.269531 87.75 13.035156 94.476562 5.097656 C 100.109375 -1.359375 104.859375 -8.664062 108.726562 -16.816406 C 112.722656 -25.234375 115.824219 -33.933594 118.035156 -42.917969 C 120.242188 -51.882812 121.484375 -60.453125 121.765625 -68.628906 C 122.023438 -75.761719 121.054688 -82.359375 118.867188 -88.421875 C 116.835938 -94.054688 114.160156 -98.371094 110.84375 -101.367188 L 110.695312 -101.5 L 110.550781 -101.640625 C 108.03125 -104.074219 105.304688 -105.449219 102.378906 -105.769531 C 99.503906 -106.085938 97.160156 -105.671875 95.347656 -104.53125 C 94.96875 -104.292969 94.699219 -104.027344 94.535156 -103.738281 C 94.238281 -103.21875 94.050781 -102.441406 93.964844 -101.410156 L 93.945312 -101.207031 L 93.921875 -101 C 93.84375 -100.347656 93.914062 -99.75 94.121094 -99.207031 C 94.359375 -98.59375 94.519531 -98.25 94.609375 -98.171875 C 101.28125 -92.238281 104.875 -85.09375 105.386719 -76.738281 C 105.78125 -70.351562 105.179688 -64.273438 103.589844 -58.503906 C 102.605469 -54.894531 101.382812 -50.863281 99.921875 -46.402344 C 98.265625 -41.332031 96.097656 -36.492188 93.421875 -31.882812 C 90.296875 -26.492188 86.277344 -22.050781 81.363281 -18.554688 C 75.777344 -14.582031 69.0625 -12.597656 61.214844 -12.597656 C 57.015625 -12.597656 53.363281 -13.660156 50.257812 -15.789062 C 46.761719 -18.183594 44.433594 -21.527344 43.273438 -25.828125 C 41.980469 -30.609375 42.316406 -37.425781 44.285156 -46.277344 L 57.792969 -109.632812 C 57.875 -110.011719 57.925781 -110.316406 57.945312 -110.542969 L 57.949219 -110.566406 C 57.949219 -110.472656 57.957031 -110.367188 57.972656 -110.242188 C 58.148438 -108.660156 58.902344 -107.199219 60.242188 -105.859375 C 61.167969 -104.933594 62.054688 -104.367188 62.894531 -104.160156 C 62.503906 -104.253906 61.789062 -104.304688 60.75 -104.304688 C 56.980469 -104.304688 51.914062 -103.464844 45.550781 -101.789062 C 38.402344 -99.910156 31.832031 -97.996094 25.84375 -96.050781 L 22.113281 -107.535156 L 26.238281 -96.183594 C 23.304688 -95.117188 20.785156 -94.042969 18.679688 -92.957031 C 19.007812 -93.128906 19.34375 -93.4375 19.6875 -93.882812 C 20.125 -94.453125 20.394531 -95.046875 20.503906 -95.660156 L 20.480469 -95.523438 L 20.453125 -95.390625 C 20.726562 -96.753906 20.507812 -98.226562 19.796875 -99.804688 C 18.839844 -101.929688 17.359375 -103.414062 15.351562 -104.25 C 17.566406 -103.324219 20.007812 -102.152344 22.671875 -100.730469 L 22.828125 -100.648438 L 22.980469 -100.5625 C 25.570312 -99.082031 27.679688 -97.21875 29.316406 -94.96875 C 31.113281 -92.496094 32.230469 -89.730469 32.667969 -86.664062 C 33.164062 -83.199219 32.984375 -79.117188 32.128906 -74.417969 L 32.074219 -74.105469 L 26.003906 -48.433594 C 23.585938 -37.1875 24.074219 -28.832031 27.472656 -23.375 C 30.230469 -18.945312 36.902344 -16.730469 47.480469 -16.730469 C 50.765625 -16.730469 54.628906 -17.511719 59.074219 -19.074219 C 63.242188 -20.539062 67.816406 -23.574219 72.800781 -28.183594 L 92.324219 -15.132812 C 89.417969 -7.269531 85.671875 0.445312 81.082031 8.007812 C 76.28125 15.917969 71.003906 22.480469 65.242188 27.691406 C 58.054688 34.195312 50.351562 37.445312 42.128906 37.445312 C 34.351562 37.445312 28.015625 35.359375 23.121094 31.183594 C 19.152344 27.796875 15.710938 22.984375 12.796875 16.746094 L 12.742188 16.625 L 12.6875 16.5 C 11.527344 13.863281 10.402344 11.957031 9.304688 10.777344 C 9.65625 11.152344 9.996094 11.398438 10.324219 11.511719 C 10.066406 11.421875 9.570312 11.375 8.84375 11.375 C 8.367188 11.375 7.976562 11.554688 7.671875 11.914062 C 6.832031 12.894531 6.398438 14.191406 6.371094 15.804688 C 6.347656 17.175781 7.082031 18.703125 8.578125 20.394531 L 8.714844 20.546875 L 8.84375 20.707031 C 10.667969 22.914062 13.847656 25.109375 18.386719 27.289062 C 22.859375 29.441406 29.378906 30.519531 37.9375 30.519531 Z M 37.9375 30.519531 "/></g></g></g><g fill="#db0227" fill-opacity="1"><g transform="translate(20.460601, 244.37184)"><g><path d="M 37.9375 42.59375 C 27.539062 42.59375 19.273438 41.117188 13.140625 38.171875 C 7.015625 35.222656 2.476562 31.960938 -0.46875 28.390625 C -4.03125 24.359375 -5.773438 20.09375 -5.703125 15.59375 C -5.628906 11.09375 -4.234375 7.25 -1.515625 4.0625 C 1.203125 0.882812 4.65625 -0.703125 8.84375 -0.703125 C 13.03125 -0.703125 16.132812 0.378906 18.15625 2.546875 C 20.175781 4.722656 22.035156 7.753906 23.734375 11.640625 C 25.910156 16.296875 28.316406 19.75 30.953125 22 C 33.585938 24.25 37.3125 25.375 42.125 25.375 C 47.25 25.375 52.253906 23.160156 57.140625 18.734375 C 62.023438 14.316406 66.5625 8.65625 70.75 1.75 C 74.945312 -5.15625 78.363281 -12.175781 81 -19.3125 C 74.789062 -13.570312 68.816406 -9.691406 63.078125 -7.671875 C 57.335938 -5.660156 52.140625 -4.65625 47.484375 -4.65625 C 32.429688 -4.65625 22.34375 -8.765625 17.21875 -16.984375 C 12.101562 -25.210938 11.097656 -36.539062 14.203125 -50.96875 L 20.25 -76.578125 C 20.875 -79.984375 21.03125 -82.773438 20.71875 -84.953125 C 20.40625 -87.128906 19.160156 -88.835938 16.984375 -90.078125 C 14.660156 -91.316406 12.566406 -92.320312 10.703125 -93.09375 C 8.835938 -93.875 8.140625 -95.425781 8.609375 -97.75 C 9.078125 -100.394531 10.585938 -102.375 13.140625 -103.6875 C 15.703125 -105.007812 18.691406 -106.289062 22.109375 -107.53125 C 28.316406 -109.550781 35.101562 -111.53125 42.46875 -113.46875 C 49.84375 -115.40625 55.9375 -116.375 60.75 -116.375 C 64.78125 -116.375 67.453125 -115.710938 68.765625 -114.390625 C 70.085938 -113.078125 70.363281 -110.632812 69.59375 -107.0625 L 56.09375 -43.75 C 54.539062 -36.769531 54.148438 -31.84375 54.921875 -28.96875 C 55.703125 -26.101562 57.800781 -24.671875 61.21875 -24.671875 C 66.488281 -24.671875 70.867188 -25.910156 74.359375 -28.390625 C 77.847656 -30.878906 80.71875 -34.0625 82.96875 -37.9375 C 85.21875 -41.8125 87.039062 -45.882812 88.4375 -50.15625 C 89.84375 -54.425781 91.007812 -58.265625 91.9375 -61.671875 C 93.175781 -66.171875 93.640625 -70.941406 93.328125 -75.984375 C 93.023438 -81.035156 90.773438 -85.421875 86.578125 -89.140625 C 85.023438 -90.535156 83.785156 -92.4375 82.859375 -94.84375 C 81.929688 -97.25 81.617188 -99.769531 81.921875 -102.40625 C 82.390625 -107.988281 84.71875 -112.097656 88.90625 -114.734375 C 93.09375 -117.378906 98.019531 -118.390625 103.6875 -117.765625 C 109.351562 -117.148438 114.4375 -114.671875 118.9375 -110.328125 C 123.75 -105.984375 127.507812 -100.046875 130.21875 -92.515625 C 132.9375 -84.992188 134.140625 -76.890625 133.828125 -68.203125 C 133.515625 -59.203125 132.15625 -49.8125 129.75 -40.03125 C 127.351562 -30.257812 123.976562 -20.796875 119.625 -11.640625 C 115.28125 -2.484375 109.929688 5.738281 103.578125 13.03125 C 95.816406 22.1875 86.46875 29.398438 75.53125 34.671875 C 64.59375 39.953125 52.0625 42.59375 37.9375 42.59375 Z M 37.9375 42.59375 "/></g></g></g></g></g></svg>