<?xml version="1.0" encoding="UTF-8"?>
<!DOCTYPE svg PUBLIC "-//W3C//DTD SVG 1.1//EN" "http://www.w3.org/Graphics/SVG/1.1/DTD/svg11.dtd">
<svg version="1.2" width="86.36mm" height="38.1mm" viewBox="0 0 8636 3810" preserveAspectRatio="xMidYMid" fill-rule="evenodd" stroke-width="28.222" stroke-linejoin="round" xmlns="http://www.w3.org/2000/svg" xmlns:ooo="http://xml.openoffice.org/svg/export" xmlns:xlink="http://www.w3.org/1999/xlink" xmlns:presentation="http://sun.com/xmlns/staroffice/presentation" xmlns:smil="http://www.w3.org/2001/SMIL20/" xmlns:anim="urn:oasis:names:tc:opendocument:xmlns:animation:1.0" xmlns:svg="urn:oasis:names:tc:opendocument:xmlns:svg-compatible:1.0" xml:space="preserve">
 <defs class="ClipPathGroup">
  <clipPath id="presentation_clip_path" clipPathUnits="userSpaceOnUse">
   <rect x="0" y="0" width="8636" height="3810"/>
  </clipPath>
  <clipPath id="presentation_clip_path_shrink" clipPathUnits="userSpaceOnUse">
   <rect x="8" y="3" width="8619" height="3803"/>
  </clipPath>
 </defs>
 <defs class="TextShapeIndex">
  <g ooo:slide="id1" ooo:id-list="id3 id4 id5 id6 id7"/>
 </defs>
 <defs class="EmbeddedBulletChars">
  <g id="bullet-char-template-57356" transform="scale(0.00048828125,-0.00048828125)">
   <path d="M 580,1141 L 1163,571 580,0 -4,571 580,1141 Z"/>
  </g>
  <g id="bullet-char-template-57354" transform="scale(0.00048828125,-0.00048828125)">
   <path d="M 8,1128 L 1137,1128 1137,0 8,0 8,1128 Z"/>
  </g>
  <g id="bullet-char-template-10146" transform="scale(0.00048828125,-0.00048828125)">
   <path d="M 174,0 L 602,739 174,1481 1456,739 174,0 Z M 1358,739 L 309,1346 659,739 1358,739 Z"/>
  </g>
  <g id="bullet-char-template-10132" transform="scale(0.00048828125,-0.00048828125)">
   <path d="M 2015,739 L 1276,0 717,0 1260,543 174,543 174,936 1260,936 717,1481 1274,1481 2015,739 Z"/>
  </g>
  <g id="bullet-char-template-10007" transform="scale(0.00048828125,-0.00048828125)">
   <path d="M 0,-2 C -7,14 -16,27 -25,37 L 356,567 C 262,823 215,952 215,954 215,979 228,992 255,992 264,992 276,990 289,987 310,991 331,999 354,1012 L 381,999 492,748 772,1049 836,1024 860,1049 C 881,1039 901,1025 922,1006 886,937 835,863 770,784 769,783 710,716 594,584 L 774,223 C 774,196 753,168 711,139 L 727,119 C 717,90 699,76 672,76 641,76 570,178 457,381 L 164,-76 C 142,-110 111,-127 72,-127 30,-127 9,-110 8,-76 1,-67 -2,-52 -2,-32 -2,-23 -1,-13 0,-2 Z"/>
  </g>
  <g id="bullet-char-template-10004" transform="scale(0.00048828125,-0.00048828125)">
   <path d="M 285,-33 C 182,-33 111,30 74,156 52,228 41,333 41,471 41,549 55,616 82,672 116,743 169,778 240,778 293,778 328,747 346,684 L 369,508 C 377,444 397,411 428,410 L 1163,1116 C 1174,1127 1196,1133 1229,1133 1271,1133 1292,1118 1292,1087 L 1292,965 C 1292,929 1282,901 1262,881 L 442,47 C 390,-6 338,-33 285,-33 Z"/>
  </g>
  <g id="bullet-char-template-9679" transform="scale(0.00048828125,-0.00048828125)">
   <path d="M 813,0 C 632,0 489,54 383,161 276,268 223,411 223,592 223,773 276,916 383,1023 489,1130 632,1184 813,1184 992,1184 1136,1130 1245,1023 1353,916 1407,772 1407,592 1407,412 1353,268 1245,161 1136,54 992,0 813,0 Z"/>
  </g>
  <g id="bullet-char-template-8226" transform="scale(0.00048828125,-0.00048828125)">
   <path d="M 346,457 C 273,457 209,483 155,535 101,586 74,649 74,723 74,796 101,859 155,911 209,963 273,989 346,989 419,989 480,963 531,910 582,859 608,796 608,723 608,648 583,586 532,535 482,483 420,457 346,457 Z"/>
  </g>
  <g id="bullet-char-template-8211" transform="scale(0.00048828125,-0.00048828125)">
   <path d="M -4,459 L 1135,459 1135,606 -4,606 -4,459 Z"/>
  </g>
  <g id="bullet-char-template-61548" transform="scale(0.00048828125,-0.00048828125)">
   <path d="M 173,740 C 173,903 231,1043 346,1159 462,1274 601,1332 765,1332 928,1332 1067,1274 1183,1159 1299,1043 1357,903 1357,740 1357,577 1299,437 1183,322 1067,206 928,148 765,148 601,148 462,206 346,322 231,437 173,577 173,740 Z"/>
  </g>
 </defs>
 <g>
  <g id="id2" class="Master_Slide">
   <g id="bg-id2" class="Background"/>
   <g id="bo-id2" class="BackgroundObjects"/>
  </g>
 </g>
 <g class="SlideGroup">
  <g>
   <g id="container-id1">
    <g id="id1" class="Slide" clip-path="url(#presentation_clip_path)">
     <g class="Page">
      <g class="Group">
       <g class="com.sun.star.drawing.ClosedBezierShape">
        <g id="id3">
         <rect class="BoundingBox" stroke="none" fill="none" x="79" y="343" width="2939" height="3271"/>
         <path fill="rgb(0,0,0)" stroke="none" d="M 80,343 L 1309,343 C 1269,393 1243,439 1231,482 1220,525 1215,569 1215,614 1215,680 1226,760 1250,856 1274,952 1304,1053 1340,1159 1376,1266 1413,1368 1450,1468 1487,1567 1520,1653 1550,1725 1577,1653 1610,1568 1648,1471 1686,1374 1723,1272 1758,1166 1793,1060 1822,959 1846,863 1870,767 1882,686 1882,621 1882,576 1876,532 1865,489 1854,446 1828,400 1787,350 L 3016,350 C 2960,386 2910,440 2867,511 2824,582 2780,663 2735,753 2647,927 2569,1083 2502,1222 2434,1361 2371,1493 2314,1619 2256,1744 2197,1873 2136,2005 2075,2137 2006,2284 1929,2447 L 1929,3192 C 1929,3276 1939,3358 1960,3439 1980,3521 2009,3578 2048,3612 L 1049,3612 C 1087,3578 1116,3520 1137,3438 1157,3355 1167,3272 1167,3189 L 1167,2440 C 1090,2277 1021,2130 960,1998 900,1866 840,1737 783,1612 725,1486 662,1354 595,1215 527,1076 449,920 361,746 316,656 272,575 231,504 189,433 139,379 80,343 Z "/>
        </g>
       </g>
       <g class="com.sun.star.drawing.ClosedBezierShape">
        <g id="id4">
         <rect class="BoundingBox" stroke="none" fill="none" x="2440" y="1190" width="2650" height="2474"/>
         <path fill="rgb(0,0,0)" stroke="none" d="M 2772,2071 C 2772,2046 2770,2008 2766,1956 2761,1904 2749,1850 2728,1793 2708,1737 2675,1688 2630,1647 2585,1607 2522,1586 2440,1586 L 2440,1570 C 2524,1565 2614,1550 2710,1524 2806,1498 2900,1465 2994,1426 3088,1386 3176,1345 3258,1304 3341,1262 3410,1224 3467,1190 L 3467,2735 C 3467,2843 3495,2927 3551,2985 3608,3044 3678,3074 3761,3074 3867,3074 3949,3040 4005,2972 4062,2904 4102,2832 4127,2755 L 4127,2071 C 4127,2046 4125,2008 4120,1956 4116,1904 4103,1850 4083,1793 4063,1737 4030,1688 3985,1647 3940,1607 3876,1586 3795,1586 L 3795,1570 C 3879,1565 3968,1550 4064,1524 4160,1498 4255,1465 4349,1426 4443,1386 4531,1345 4613,1304 4696,1262 4765,1224 4821,1190 L 4821,1919 C 4821,2072 4821,2223 4821,2373 4821,2522 4821,2692 4821,2884 4821,2947 4827,3011 4838,3074 4850,3137 4874,3190 4911,3231 4948,3273 5008,3294 5089,3294 L 5089,3311 C 5024,3345 4955,3382 4882,3423 4810,3463 4741,3502 4674,3538 4607,3574 4549,3604 4498,3627 4447,3651 4412,3663 4391,3663 4335,3663 4287,3639 4247,3592 4208,3544 4178,3485 4158,3414 4137,3343 4127,3273 4127,3206 L 4127,2884 3782,3575 C 3739,3600 3691,3621 3639,3638 3587,3655 3530,3663 3467,3663 3252,3663 3083,3600 2959,3475 2834,3350 2772,3159 2772,2904 L 2772,2071 Z "/>
        </g>
       </g>
       <g class="com.sun.star.drawing.ClosedBezierShape">
        <g id="id5">
         <rect class="BoundingBox" stroke="none" fill="none" x="4885" y="173" width="2610" height="3441"/>
         <path fill="rgb(0,0,0)" stroke="none" d="M 5217,1054 C 5217,1030 5215,991 5211,939 5206,887 5194,833 5173,777 5153,720 5120,672 5075,631 5030,590 4967,570 4886,570 L 4886,553 C 4969,549 5059,533 5155,507 5251,481 5346,449 5439,409 5533,370 5621,329 5703,287 5786,245 5855,208 5912,174 L 5912,2233 6593,1241 7395,1241 6708,2243 7494,3612 6691,3612 5912,2254 5912,3189 C 5912,3272 5922,3355 5942,3438 5963,3520 5992,3578 6030,3612 L 5099,3612 C 5137,3578 5167,3521 5187,3439 5207,3358 5217,3276 5217,3192 L 5217,1054 Z "/>
        </g>
       </g>
       <g class="com.sun.star.drawing.ClosedBezierShape">
        <g id="id6">
         <rect class="BoundingBox" stroke="none" fill="none" x="7391" y="1189" width="1147" height="2424"/>
         <path fill="rgb(0,0,0)" stroke="none" d="M 7392,1569 C 7413,1567 7434,1565 7455,1564 7478,1560 7500,1557 7522,1554 7544,1550 7567,1545 7590,1541 7614,1535 7637,1529 7661,1523 7685,1516 7709,1509 7733,1502 7756,1495 7780,1487 7804,1479 7828,1471 7851,1462 7875,1453 7898,1444 7922,1434 7945,1425 8034,1384 8122,1344 8210,1303 8248,1283 8286,1263 8324,1243 8340,1234 8357,1225 8373,1216 8388,1207 8403,1198 8418,1190 8418,1856 8418,2522 8418,3188 8419,3209 8419,3230 8420,3251 8422,3271 8424,3292 8426,3313 8429,3334 8432,3354 8435,3375 8440,3396 8444,3416 8448,3437 8451,3447 8454,3457 8456,3467 8459,3476 8462,3485 8465,3494 8469,3503 8472,3511 8475,3520 8479,3527 8482,3535 8486,3542 8489,3549 8493,3556 8497,3563 8501,3569 8505,3575 8509,3582 8512,3584 8514,3587 8516,3590 8518,3592 8520,3595 8523,3598 8525,3600 8527,3602 8529,3605 8532,3607 8534,3609 8536,3612 8226,3612 7916,3612 7605,3612 7607,3609 7610,3607 7612,3605 7614,3602 7617,3600 7619,3598 7623,3592 7628,3587 7632,3582 7636,3576 7640,3569 7644,3563 7648,3557 7652,3550 7656,3543 7659,3535 7663,3528 7666,3520 7670,3512 7673,3504 7676,3495 7679,3486 7682,3477 7685,3468 7688,3458 7690,3449 7693,3439 7698,3418 7702,3398 7706,3378 7710,3357 7713,3336 7716,3316 7718,3295 7720,3275 7722,3254 7722,3233 7723,3212 7724,3191 7724,2818 7724,2444 7724,2070 7723,2063 7723,2056 7723,2049 7723,2040 7722,2032 7722,2023 7720,2000 7719,1978 7717,1955 7716,1949 7715,1942 7715,1936 7714,1929 7713,1922 7712,1916 7711,1909 7710,1902 7708,1896 7707,1889 7706,1882 7704,1876 7701,1862 7697,1848 7693,1834 7689,1820 7684,1807 7680,1793 7677,1786 7674,1779 7671,1772 7668,1765 7665,1758 7662,1752 7658,1745 7655,1739 7651,1732 7648,1726 7644,1720 7640,1714 7635,1708 7631,1702 7627,1696 7622,1690 7618,1685 7613,1679 7608,1673 7603,1668 7598,1663 7592,1657 7587,1652 7581,1647 7578,1644 7576,1642 7573,1640 7570,1637 7567,1635 7564,1633 7560,1630 7557,1628 7554,1626 7551,1624 7547,1622 7544,1620 7541,1618 7537,1617 7534,1615 7530,1613 7527,1611 7523,1610 7515,1607 7508,1604 7500,1601 7492,1599 7484,1597 7476,1594 7467,1593 7458,1591 7449,1590 7440,1589 7431,1588 7421,1587 7411,1587 7402,1586 7392,1586 7392,1580 7392,1575 7392,1569 Z "/>
        </g>
       </g>
       <g class="Graphic">
        <g id="id7">
         <rect class="BoundingBox" stroke="none" fill="none" x="7552" y="79" width="1025" height="1025"/>
         <defs>
          <clipPath id="clip_path_1" clipPathUnits="userSpaceOnUse">
           <path d="M 7552,79 L 8576,79 8576,1103 7552,1103 7552,79 Z "/>
          </clipPath>
         </defs>
         <g clip-path="url(#clip_path_1)"/>
         <defs>
          <clipPath id="clip_path_2" clipPathUnits="userSpaceOnUse">
           <path d="M 7552,80 L 7553,79 8576,79 8576,1103 7553,1103 7552,1102 7552,80 Z "/>
          </clipPath>
         </defs>
         <g clip-path="url(#clip_path_2)"/>
         <defs>
          <clipPath id="clip_path_3" clipPathUnits="userSpaceOnUse">
           <path d="M 7552,80 L 7553,79 8576,79 8576,1103 7553,1103 7552,1102 7552,80 Z "/>
          </clipPath>
         </defs>
         <g clip-path="url(#clip_path_3)">
          <path fill="rgb(0,0,0)" stroke="none" d="M 8576,79 C 8301,523 8301,659 8576,1103 8132,828 7996,828 7552,1103 7827,659 7827,523 7552,79 7996,354 8132,354 8576,79 L 8576,79 Z "/>
         </g>
         <g clip-path="url(#clip_path_2)"/>
         <g clip-path="url(#clip_path_1)"/>
        </g>
       </g>
      </g>
     </g>
    </g>
   </g>
  </g>
 </g>
</svg>