<svg xmlns="http://www.w3.org/2000/svg" xmlns:xlink="http://www.w3.org/1999/xlink" zoomAndPan="magnify" preserveAspectRatio="xMidYMid meet" version="1.0" viewBox="36.46 49.99 246.57 112.3"><defs><g/><clipPath id="7d9a58f08f"><rect x="0" width="251" y="0" height="162"/></clipPath><clipPath id="837a3d1f1b"><rect x="0" width="245" y="0" height="162"/></clipPath></defs><g transform="matrix(1, 0, 0, 1, 35, 21)"><g clip-path="url(#7d9a58f08f)"><g fill="#db0227" fill-opacity="1"><g transform="translate(13.230271, 112.778113)"><g><path d="M 17.226562 28.519531 C 11.109375 28.519531 6.03125 27.546875 1.992188 25.605469 C -2.003906 23.683594 -5.09375 21.394531 -7.289062 18.738281 L -0.210938 12.890625 L -7.089844 18.976562 C -10.285156 15.363281 -11.84375 11.34375 -11.769531 6.921875 C -11.695312 2.683594 -10.328125 -0.996094 -7.667969 -4.113281 C -6.179688 -5.855469 -4.433594 -7.191406 -2.429688 -8.113281 C -0.425781 -9.035156 1.722656 -9.5 4.015625 -9.5 C 6.007812 -9.5 7.84375 -9.203125 9.53125 -8.613281 C 11.667969 -7.863281 13.480469 -6.6875 14.96875 -5.085938 C 16.589844 -3.34375 17.992188 -1.117188 19.183594 1.585938 L 10.777344 5.285156 L 19.097656 1.402344 C 19.367188 1.980469 19.625 2.445312 19.871094 2.796875 C 19.941406 2.898438 20.003906 2.976562 20.054688 3.035156 C 20.0625 3.042969 20.066406 3.046875 20.066406 3.046875 C 20.050781 3.035156 20.035156 3.019531 20.011719 3 C 19.636719 2.679688 19.257812 2.460938 18.875 2.347656 C 18.835938 2.335938 18.804688 2.324219 18.773438 2.320312 L 18.78125 2.320312 C 18.867188 2.332031 18.984375 2.335938 19.125 2.335938 C 18.996094 2.335938 18.910156 2.347656 18.863281 2.367188 C 19.097656 2.265625 19.40625 2.042969 19.78125 1.699219 C 21.339844 0.289062 22.835938 -1.597656 24.277344 -3.96875 C 25.871094 -6.601562 27.167969 -9.265625 28.164062 -11.953125 L 36.773438 -8.769531 L 43.007812 -2.03125 C 39.261719 1.4375 35.484375 3.839844 31.679688 5.175781 C 28.089844 6.4375 24.714844 7.066406 21.558594 7.066406 C 16.941406 7.066406 12.933594 6.375 9.53125 4.988281 C 5.40625 3.304688 2.238281 0.6875 0.0273438 -2.863281 C -3.605469 -8.695312 -4.460938 -16.101562 -2.53125 -25.074219 L 0.257812 -36.878906 L 9.195312 -34.765625 L 0.160156 -36.410156 C 0.234375 -36.808594 0.277344 -37.136719 0.289062 -37.390625 C 0.292969 -37.441406 0.296875 -37.476562 0.292969 -37.492188 C 0.296875 -37.433594 0.304688 -37.363281 0.316406 -37.273438 C 0.460938 -36.261719 0.839844 -35.332031 1.453125 -34.492188 C 1.941406 -33.816406 2.511719 -33.292969 3.160156 -32.925781 L 7.714844 -40.894531 L 3.394531 -32.792969 C 2.59375 -33.222656 1.90625 -33.554688 1.328125 -33.792969 C -1.328125 -34.902344 -3.230469 -36.734375 -4.382812 -39.292969 C -5.347656 -41.433594 -5.582031 -43.730469 -5.09375 -46.183594 L 3.910156 -44.382812 L -5.132812 -45.976562 C -4.765625 -48.046875 -3.960938 -49.898438 -2.710938 -51.53125 C -1.53125 -53.074219 -0.0390625 -54.308594 1.765625 -55.238281 C 3.273438 -56.015625 4.984375 -56.753906 6.902344 -57.449219 L 7.050781 -57.503906 L 7.203125 -57.550781 C 10.183594 -58.523438 13.433594 -59.46875 16.949219 -60.394531 C 21.0625 -61.476562 24.605469 -62.019531 27.582031 -62.019531 C 31.949219 -62.019531 35.328125 -60.820312 37.71875 -58.429688 C 39.535156 -56.613281 40.59375 -54.359375 40.894531 -51.671875 C 41.066406 -50.121094 40.957031 -48.449219 40.566406 -46.660156 L 34.445312 -17.953125 C 34.175781 -16.734375 34.015625 -15.78125 33.960938 -15.089844 C 33.945312 -14.921875 33.941406 -14.816406 33.945312 -14.765625 C 33.933594 -14.980469 33.886719 -15.242188 33.800781 -15.550781 C 33.390625 -17.078125 32.492188 -18.316406 31.105469 -19.265625 C 30.015625 -20.007812 28.914062 -20.382812 27.792969 -20.382812 C 28.140625 -20.382812 28.402344 -20.40625 28.578125 -20.457031 C 28.558594 -20.453125 28.511719 -20.421875 28.441406 -20.375 C 28.945312 -20.730469 29.375 -21.21875 29.730469 -21.832031 C 30.429688 -23.035156 30.996094 -24.300781 31.429688 -25.628906 C 32.015625 -27.421875 32.5 -29.015625 32.882812 -30.417969 C 33.179688 -31.496094 33.289062 -32.667969 33.210938 -33.9375 C 33.21875 -33.804688 33.261719 -33.664062 33.335938 -33.519531 C 33.355469 -33.480469 33.371094 -33.453125 33.382812 -33.4375 C 33.347656 -33.484375 33.289062 -33.539062 33.210938 -33.609375 C 31.390625 -35.246094 30.007812 -37.292969 29.058594 -39.746094 C 28.085938 -42.257812 27.761719 -44.863281 28.078125 -47.570312 L 37.195312 -46.496094 L 28.046875 -47.257812 C 28.265625 -49.863281 28.96875 -52.21875 30.160156 -54.320312 C 31.445312 -56.597656 33.21875 -58.445312 35.476562 -59.867188 C 39.183594 -62.203125 43.382812 -63.113281 48.078125 -62.597656 C 52.730469 -62.085938 56.828125 -60.121094 60.375 -56.695312 L 54 -50.089844 L 60.152344 -56.902344 C 63.472656 -53.90625 66.007812 -49.976562 67.761719 -45.121094 C 69.394531 -40.589844 70.121094 -35.761719 69.9375 -30.632812 C 69.773438 -25.921875 69.070312 -21.039062 67.828125 -15.984375 C 66.589844 -10.941406 64.847656 -6.0625 62.609375 -1.347656 C 60.277344 3.570312 57.386719 8.003906 53.941406 11.953125 C 49.636719 17.035156 44.417969 21.054688 38.277344 24.015625 C 32.050781 27.019531 25.035156 28.519531 17.226562 28.519531 Z M 17.226562 10.15625 C 22.238281 10.15625 26.597656 9.261719 30.304688 7.476562 C 34.097656 5.644531 37.367188 3.113281 40.105469 -0.117188 C 42.4375 -2.792969 44.410156 -5.828125 46.023438 -9.21875 C 47.730469 -12.816406 49.054688 -16.53125 49.996094 -20.371094 C 50.9375 -24.191406 51.46875 -27.832031 51.585938 -31.289062 C 51.6875 -34.050781 51.320312 -36.585938 50.488281 -38.890625 C 49.773438 -40.867188 48.894531 -42.328125 47.84375 -43.277344 L 47.730469 -43.378906 L 47.621094 -43.484375 C 47.085938 -44.003906 46.570312 -44.289062 46.078125 -44.34375 C 45.628906 -44.394531 45.355469 -44.386719 45.257812 -44.328125 C 45.613281 -44.550781 45.90625 -44.867188 46.136719 -45.277344 C 46.230469 -45.4375 46.296875 -45.589844 46.335938 -45.730469 L 46.347656 -45.734375 L 46.316406 -45.421875 C 46.351562 -45.734375 46.308594 -46.050781 46.183594 -46.375 C 46.078125 -46.648438 45.820312 -46.964844 45.410156 -47.335938 C 47.21875 -45.730469 48.636719 -43.917969 49.671875 -41.90625 C 50.765625 -39.769531 51.390625 -37.488281 51.539062 -35.066406 C 51.742188 -31.757812 51.429688 -28.597656 50.597656 -25.585938 C 50.136719 -23.890625 49.5625 -22 48.882812 -19.917969 C 48.046875 -17.367188 46.957031 -14.9375 45.613281 -12.617188 C 43.925781 -9.710938 41.75 -7.304688 39.082031 -5.410156 C 35.90625 -3.148438 32.140625 -2.019531 27.792969 -2.019531 C 25.121094 -2.019531 22.765625 -2.71875 20.726562 -4.117188 C 18.390625 -5.71875 16.839844 -7.933594 16.074219 -10.761719 C 15.625 -12.433594 15.484375 -14.359375 15.652344 -16.53125 C 15.777344 -18.078125 16.054688 -19.828125 16.488281 -21.78125 L 22.625 -50.558594 C 22.628906 -50.585938 22.632812 -50.601562 22.636719 -50.613281 C 22.628906 -50.582031 22.625 -50.542969 22.621094 -50.496094 C 22.601562 -50.242188 22.609375 -49.957031 22.644531 -49.644531 C 22.820312 -48.0625 23.515625 -46.664062 24.734375 -45.445312 C 25.640625 -44.539062 26.621094 -43.957031 27.667969 -43.699219 C 27.792969 -43.667969 27.882812 -43.648438 27.941406 -43.644531 C 27.859375 -43.652344 27.738281 -43.65625 27.582031 -43.65625 C 26.1875 -43.65625 24.203125 -43.316406 21.621094 -42.636719 C 18.445312 -41.800781 15.527344 -40.953125 12.875 -40.089844 L 10.039062 -48.820312 L 13.175781 -40.191406 C 11.992188 -39.761719 10.992188 -39.335938 10.175781 -38.914062 C 10.816406 -39.246094 11.382812 -39.734375 11.875 -40.378906 C 12.4375 -41.113281 12.796875 -41.917969 12.953125 -42.789062 L 12.933594 -42.683594 L 12.914062 -42.582031 C 13.191406 -43.976562 13.007812 -45.394531 12.363281 -46.828125 C 11.917969 -47.8125 11.296875 -48.667969 10.5 -49.394531 C 9.863281 -49.972656 9.160156 -50.425781 8.390625 -50.746094 C 9.507812 -50.28125 10.722656 -49.699219 12.035156 -48.996094 L 12.152344 -48.933594 L 12.269531 -48.867188 C 13.902344 -47.933594 15.246094 -46.742188 16.300781 -45.292969 C 17.476562 -43.675781 18.207031 -41.867188 18.492188 -39.871094 C 18.773438 -37.898438 18.6875 -35.652344 18.226562 -33.125 L 18.183594 -32.886719 L 15.421875 -21.210938 C 14.914062 -18.84375 14.730469 -16.832031 14.878906 -15.1875 C 14.976562 -14.066406 15.222656 -13.195312 15.613281 -12.566406 C 15.726562 -12.382812 16.011719 -12.199219 16.464844 -12.015625 C 17.640625 -11.535156 19.339844 -11.292969 21.558594 -11.292969 C 22.625 -11.292969 23.972656 -11.578125 25.59375 -12.148438 C 27.003906 -12.644531 28.652344 -13.765625 30.539062 -15.511719 L 45.386719 -5.589844 C 43.984375 -1.796875 42.179688 1.917969 39.972656 5.554688 C 37.609375 9.453125 34.984375 12.707031 32.101562 15.316406 C 28.136719 18.90625 23.808594 20.699219 19.125 20.699219 C 14.6875 20.699219 11.011719 19.457031 8.097656 16.972656 C 5.886719 15.085938 4.007812 12.484375 2.460938 9.167969 L 2.375 8.980469 C 2.015625 8.164062 1.730469 7.640625 1.515625 7.410156 C 2.089844 8.027344 2.738281 8.464844 3.464844 8.71875 C 3.660156 8.785156 3.835938 8.832031 3.996094 8.855469 L 4.015625 8.863281 C 4.40625 8.863281 4.820312 8.765625 5.253906 8.5625 C 5.691406 8.363281 6.039062 8.109375 6.296875 7.808594 C 6.398438 7.691406 6.480469 7.546875 6.542969 7.378906 C 6.566406 7.3125 6.582031 7.253906 6.589844 7.203125 C 6.59375 7.195312 6.59375 7.1875 6.59375 7.1875 C 6.59375 7.199219 6.589844 7.21875 6.589844 7.238281 C 6.59375 7 6.558594 6.785156 6.476562 6.589844 C 6.46875 6.566406 6.457031 6.546875 6.449219 6.53125 C 6.449219 6.53125 6.453125 6.539062 6.460938 6.546875 C 6.507812 6.621094 6.574219 6.707031 6.664062 6.808594 L 6.769531 6.925781 L 6.867188 7.046875 C 7.351562 7.628906 8.378906 8.300781 9.949219 9.058594 C 11.476562 9.789062 13.898438 10.15625 17.226562 10.15625 Z M 17.226562 10.15625 "/></g></g></g><g fill="#db0227" fill-opacity="1"><g transform="translate(72.189518, 112.778113)"><g><path d="M 17.4375 10.449219 C 13.632812 10.449219 10.214844 9.671875 7.183594 8.117188 C 3.972656 6.472656 1.367188 4.058594 -0.636719 0.878906 C -4.183594 -4.757812 -5.027344 -11.894531 -3.164062 -20.535156 L 0.324219 -36.703125 L 9.300781 -34.765625 L 0.265625 -36.410156 C 0.339844 -36.808594 0.382812 -37.136719 0.398438 -37.390625 C 0.398438 -37.441406 0.402344 -37.476562 0.398438 -37.492188 C 0.402344 -37.433594 0.410156 -37.363281 0.421875 -37.273438 C 0.566406 -36.261719 0.945312 -35.332031 1.558594 -34.492188 C 2.046875 -33.816406 2.617188 -33.292969 3.265625 -32.925781 L 7.820312 -40.894531 L 3.5 -32.792969 C 2.699219 -33.222656 2.011719 -33.554688 1.433594 -33.792969 C -1.222656 -34.902344 -3.125 -36.734375 -4.277344 -39.292969 C -5.242188 -41.433594 -5.476562 -43.730469 -4.988281 -46.183594 L 4.015625 -44.382812 L -5.027344 -45.976562 C -4.660156 -48.046875 -3.851562 -49.898438 -2.605469 -51.53125 C -1.425781 -53.074219 0.0664062 -54.308594 1.871094 -55.238281 C 3.378906 -56.015625 5.089844 -56.753906 7.007812 -57.449219 L 7.15625 -57.503906 L 7.308594 -57.550781 C 10.289062 -58.523438 13.539062 -59.46875 17.054688 -60.394531 C 21.167969 -61.476562 24.710938 -62.019531 27.6875 -62.019531 C 32.054688 -62.019531 35.433594 -60.820312 37.824219 -58.429688 C 39.640625 -56.613281 40.699219 -54.359375 41 -51.671875 C 41.171875 -50.121094 41.0625 -48.449219 40.671875 -46.660156 L 34.980469 -19.5625 C 34.898438 -19.199219 34.859375 -18.949219 34.859375 -18.808594 C 34.859375 -18.941406 34.824219 -19.125 34.75 -19.355469 C 34.304688 -20.765625 33.425781 -21.902344 32.109375 -22.765625 C 31.09375 -23.429688 30.078125 -23.765625 29.058594 -23.765625 C 28.679688 -23.765625 28.394531 -23.710938 28.199219 -23.605469 C 28.46875 -23.75 28.839844 -24.078125 29.308594 -24.585938 C 30.4375 -25.796875 31.292969 -27.933594 31.878906 -30.996094 L 32.9375 -36.5 C 32.996094 -36.839844 33.035156 -37.136719 33.050781 -37.390625 C 33.050781 -37.441406 33.054688 -37.476562 33.054688 -37.492188 C 33.054688 -37.433594 33.0625 -37.363281 33.074219 -37.273438 C 33.21875 -36.261719 33.597656 -35.332031 34.210938 -34.492188 C 34.703125 -33.816406 35.269531 -33.292969 35.917969 -32.925781 L 40.472656 -40.894531 L 36.152344 -32.792969 C 35.351562 -33.222656 34.664062 -33.554688 34.089844 -33.792969 C 31.433594 -34.902344 29.527344 -36.734375 28.375 -39.292969 C 27.414062 -41.433594 27.175781 -43.730469 27.664062 -46.183594 L 36.667969 -44.382812 L 27.628906 -45.976562 C 27.992188 -48.046875 28.800781 -49.898438 30.050781 -51.53125 C 31.230469 -53.074219 32.71875 -54.308594 34.523438 -55.238281 C 36.03125 -56.015625 37.746094 -56.753906 39.660156 -57.449219 L 39.808594 -57.503906 L 39.960938 -57.550781 C 42.945312 -58.523438 46.191406 -59.46875 49.707031 -60.394531 C 53.820312 -61.476562 57.363281 -62.019531 60.339844 -62.019531 C 64.707031 -62.019531 68.085938 -60.820312 70.476562 -58.429688 C 72.292969 -56.613281 73.351562 -54.359375 73.652344 -51.671875 C 73.824219 -50.121094 73.714844 -48.449219 73.328125 -46.660156 L 66.789062 -15.347656 C 66.816406 -15.464844 66.820312 -15.714844 66.796875 -16.09375 C 66.734375 -17.242188 66.355469 -18.351562 65.671875 -19.410156 C 65.023438 -20.410156 64.160156 -21.207031 63.078125 -21.800781 C 61.976562 -22.40625 60.816406 -22.707031 59.601562 -22.707031 C 58.15625 -22.707031 56.863281 -22.246094 55.714844 -21.328125 C 56.289062 -21.789062 57.054688 -22.386719 58.019531 -23.128906 L 63.617188 -15.851562 L 57.800781 -22.957031 C 59.160156 -24.070312 60.640625 -24.855469 62.242188 -25.320312 C 64.125 -25.863281 66.027344 -25.925781 67.945312 -25.507812 C 70.15625 -25.027344 72.046875 -23.980469 73.613281 -22.359375 C 74.890625 -21.042969 75.828125 -19.457031 76.425781 -17.605469 C 77.488281 -14.296875 77.070312 -10.660156 75.167969 -6.699219 L 66.890625 -10.671875 L 75.320312 -7.035156 C 73.371094 -2.519531 70.261719 1.429688 65.992188 4.816406 C 61.257812 8.570312 55.816406 10.449219 49.667969 10.449219 C 45.140625 10.449219 41.296875 9.300781 38.136719 7.003906 C 35.097656 4.789062 32.917969 1.921875 31.605469 -1.601562 C 30.589844 -4.332031 30.027344 -7.214844 29.921875 -10.25 L 39.097656 -10.566406 L 29.988281 -9.429688 C 30.125 -8.355469 30.503906 -7.324219 31.125 -6.339844 C 32.242188 -4.570312 33.808594 -3.382812 35.828125 -2.777344 C 37.242188 -2.351562 38.675781 -2.292969 40.117188 -2.605469 C 41.199219 -2.835938 42.1875 -3.257812 43.082031 -3.867188 C 43.871094 -4.40625 44.492188 -5.011719 44.941406 -5.6875 C 43.386719 -3.402344 41.472656 -1.121094 39.199219 1.15625 C 36.628906 3.726562 33.632812 5.867188 30.207031 7.578125 C 26.378906 9.492188 22.121094 10.449219 17.4375 10.449219 Z M 17.4375 -7.914062 C 19.230469 -7.914062 20.75 -8.222656 21.996094 -8.847656 C 23.644531 -9.667969 25.050781 -10.664062 26.214844 -11.828125 C 27.671875 -13.285156 28.824219 -14.632812 29.664062 -15.871094 C 30.535156 -17.179688 31.5625 -18.234375 32.738281 -19.039062 C 33.828125 -19.78125 35.003906 -20.285156 36.269531 -20.558594 C 37.898438 -20.90625 39.511719 -20.84375 41.101562 -20.363281 C 43.472656 -19.652344 45.320312 -18.246094 46.648438 -16.144531 C 47.484375 -14.820312 48.003906 -13.34375 48.210938 -11.707031 L 48.261719 -11.296875 L 48.273438 -10.882812 C 48.3125 -9.835938 48.488281 -8.878906 48.8125 -8.011719 C 48.835938 -7.945312 48.878906 -7.890625 48.9375 -7.847656 C 48.8125 -7.9375 48.726562 -7.992188 48.671875 -8.003906 C 48.894531 -7.945312 49.226562 -7.914062 49.667969 -7.914062 C 51.550781 -7.914062 53.1875 -8.464844 54.582031 -9.570312 C 56.441406 -11.046875 57.734375 -12.625 58.460938 -14.3125 L 58.535156 -14.480469 L 58.613281 -14.644531 C 58.683594 -14.789062 58.734375 -14.902344 58.761719 -14.984375 C 58.746094 -14.941406 58.730469 -14.867188 58.707031 -14.757812 C 58.542969 -13.90625 58.621094 -12.984375 58.941406 -11.984375 C 59.222656 -11.117188 59.71875 -10.316406 60.433594 -9.578125 C 61.4375 -8.542969 62.640625 -7.871094 64.042969 -7.566406 C 65.148438 -7.324219 66.25 -7.363281 67.339844 -7.679688 C 68.148438 -7.910156 68.84375 -8.265625 69.429688 -8.746094 L 69.324219 -8.65625 L 69.214844 -8.574219 C 68.34375 -7.90625 67.667969 -7.378906 67.183594 -6.992188 C 64.980469 -5.226562 62.453125 -4.34375 59.601562 -4.34375 C 57.679688 -4.34375 55.894531 -4.796875 54.246094 -5.699219 C 52.617188 -6.59375 51.289062 -7.839844 50.253906 -9.4375 C 48.472656 -12.1875 47.996094 -15.410156 48.816406 -19.101562 L 55.382812 -50.558594 C 55.390625 -50.585938 55.394531 -50.601562 55.394531 -50.613281 C 55.390625 -50.582031 55.386719 -50.542969 55.382812 -50.496094 C 55.359375 -50.242188 55.367188 -49.957031 55.402344 -49.644531 C 55.578125 -48.0625 56.273438 -46.664062 57.492188 -45.445312 C 58.402344 -44.539062 59.378906 -43.957031 60.429688 -43.699219 C 60.550781 -43.667969 60.644531 -43.648438 60.699219 -43.644531 C 60.617188 -43.652344 60.496094 -43.65625 60.339844 -43.65625 C 58.949219 -43.65625 56.960938 -43.316406 54.378906 -42.636719 C 51.203125 -41.800781 48.289062 -40.953125 45.636719 -40.089844 L 42.796875 -48.820312 L 45.933594 -40.191406 C 44.75 -39.761719 43.75 -39.335938 42.933594 -38.914062 C 43.574219 -39.246094 44.144531 -39.734375 44.636719 -40.378906 C 45.199219 -41.113281 45.554688 -41.917969 45.710938 -42.789062 L 45.691406 -42.683594 L 45.671875 -42.582031 C 45.949219 -43.976562 45.765625 -45.394531 45.121094 -46.828125 C 44.675781 -47.8125 44.058594 -48.667969 43.261719 -49.394531 C 42.621094 -49.972656 41.917969 -50.425781 41.152344 -50.746094 C 42.265625 -50.28125 43.480469 -49.699219 44.792969 -48.996094 L 44.910156 -48.933594 L 45.027344 -48.867188 C 46.660156 -47.933594 48.007812 -46.742188 49.058594 -45.292969 C 50.238281 -43.675781 50.96875 -41.867188 51.253906 -39.871094 C 51.535156 -37.898438 51.4375 -35.621094 50.96875 -33.03125 L 49.914062 -27.546875 C 48.667969 -21.027344 46.28125 -15.875 42.757812 -12.082031 C 38.617188 -7.628906 34.050781 -5.402344 29.058594 -5.402344 C 26.421875 -5.402344 24.085938 -6.070312 22.046875 -7.40625 C 19.710938 -8.9375 18.109375 -11.074219 17.242188 -13.824219 C 16.324219 -16.730469 16.246094 -19.902344 17.011719 -23.339844 L 22.730469 -50.558594 C 22.734375 -50.585938 22.738281 -50.601562 22.742188 -50.613281 C 22.738281 -50.582031 22.730469 -50.542969 22.726562 -50.496094 C 22.707031 -50.242188 22.714844 -49.957031 22.75 -49.644531 C 22.925781 -48.0625 23.621094 -46.664062 24.839844 -45.445312 C 25.746094 -44.539062 26.726562 -43.957031 27.773438 -43.699219 C 27.898438 -43.667969 27.988281 -43.648438 28.046875 -43.644531 C 27.964844 -43.652344 27.84375 -43.65625 27.6875 -43.65625 C 26.292969 -43.65625 24.308594 -43.316406 21.726562 -42.636719 C 18.550781 -41.800781 15.632812 -40.953125 12.980469 -40.089844 L 10.144531 -48.820312 L 13.28125 -40.191406 C 12.097656 -39.761719 11.097656 -39.335938 10.28125 -38.914062 C 10.921875 -39.246094 11.488281 -39.734375 11.980469 -40.378906 C 12.546875 -41.113281 12.902344 -41.917969 13.058594 -42.789062 L 13.039062 -42.683594 L 13.019531 -42.582031 C 13.296875 -43.976562 13.113281 -45.394531 12.46875 -46.828125 C 12.023438 -47.8125 11.402344 -48.667969 10.609375 -49.394531 C 9.96875 -49.972656 9.265625 -50.425781 8.496094 -50.746094 C 9.613281 -50.28125 10.828125 -49.699219 12.140625 -48.996094 L 12.257812 -48.933594 L 12.375 -48.867188 C 14.007812 -47.933594 15.351562 -46.742188 16.40625 -45.292969 C 17.582031 -43.675781 18.3125 -41.867188 18.597656 -39.871094 C 18.878906 -37.898438 18.792969 -35.652344 18.332031 -33.125 L 18.304688 -32.976562 L 14.785156 -16.660156 C 14.3125 -14.472656 14.144531 -12.632812 14.28125 -11.132812 C 14.371094 -10.167969 14.574219 -9.425781 14.902344 -8.910156 C 15.117188 -8.566406 15.335938 -8.335938 15.5625 -8.222656 C 15.964844 -8.015625 16.589844 -7.914062 17.4375 -7.914062 Z M 17.4375 -7.914062 "/></g></g></g><g fill="#db0227" fill-opacity="1"><g transform="translate(138.228176, 112.778113)"><g><path d="M 46.601562 10.449219 C 41.269531 10.449219 36.757812 8.960938 33.070312 5.980469 C 29.886719 3.414062 27.433594 0.132812 25.707031 -3.859375 C 24.316406 -7.070312 23.257812 -10.535156 22.53125 -14.25 C 21.878906 -17.601562 21.394531 -20.867188 21.085938 -24.046875 C 21.144531 -23.335938 21.394531 -22.554688 21.835938 -21.703125 C 22.3125 -20.785156 22.949219 -19.980469 23.746094 -19.285156 C 24.769531 -18.398438 25.941406 -17.789062 27.257812 -17.457031 C 28.425781 -17.167969 29.601562 -17.125 30.785156 -17.339844 C 31.726562 -17.507812 32.601562 -17.828125 33.410156 -18.292969 C 34.21875 -18.761719 34.867188 -19.308594 35.355469 -19.9375 L 28.109375 -25.574219 L 35.582031 -20.238281 L 32.9375 -16.539062 C 32.78125 -16.320312 32.660156 -16.136719 32.578125 -15.988281 C 32.566406 -15.960938 32.554688 -15.945312 32.554688 -15.941406 C 32.574219 -15.980469 32.59375 -16.03125 32.617188 -16.09375 C 32.441406 -15.617188 32.253906 -14.972656 32.050781 -14.152344 L 23.140625 -16.378906 L 32.125 -14.488281 C 31.875 -13.296875 31.640625 -12.003906 31.417969 -10.605469 C 31.191406 -9.195312 30.984375 -7.613281 30.789062 -5.855469 L 21.664062 -6.867188 L 30.816406 -6.164062 C 30.515625 -2.257812 29.195312 1 26.847656 3.605469 C 24.496094 6.21875 21.023438 7.941406 16.425781 8.769531 C 13.390625 9.320312 9.085938 9.632812 3.507812 9.707031 C 1.425781 9.710938 -0.445312 9.363281 -2.105469 8.671875 C -4.402344 7.714844 -6.207031 6.210938 -7.523438 4.15625 C -8.59375 2.476562 -9.230469 0.640625 -9.425781 -1.359375 C -9.59375 -3.035156 -9.433594 -4.738281 -8.953125 -6.472656 C -8.425781 -8.347656 -7.921875 -10.054688 -7.429688 -11.597656 C -7.007812 -12.933594 -6.582031 -14.375 -6.152344 -15.921875 C -5.746094 -17.398438 -5.3125 -19.207031 -4.859375 -21.347656 L 3.179688 -58.476562 L 12.152344 -56.535156 L 3.121094 -58.175781 C 3.191406 -58.578125 3.234375 -58.90625 3.25 -59.15625 C 3.253906 -59.210938 3.253906 -59.242188 3.253906 -59.261719 C 3.253906 -59.203125 3.261719 -59.128906 3.273438 -59.042969 C 3.417969 -58.03125 3.796875 -57.101562 4.410156 -56.261719 C 4.902344 -55.585938 5.46875 -55.0625 6.117188 -54.691406 L 10.671875 -62.664062 L 6.351562 -54.5625 C 5.554688 -54.988281 4.863281 -55.324219 4.289062 -55.5625 C 1.632812 -56.671875 -0.273438 -58.503906 -1.425781 -61.0625 C -2.386719 -63.203125 -2.625 -65.5 -2.132812 -67.953125 L 6.867188 -66.152344 L -2.171875 -67.746094 C -1.808594 -69.816406 -1 -71.667969 0.25 -73.300781 C 1.429688 -74.84375 2.921875 -76.078125 4.726562 -77.007812 C 6.234375 -77.785156 7.945312 -78.523438 9.859375 -79.21875 L 10.007812 -79.273438 L 10.160156 -79.320312 C 13.144531 -80.292969 16.394531 -81.238281 19.90625 -82.164062 C 24.019531 -83.246094 27.5625 -83.785156 30.539062 -83.785156 C 34.90625 -83.785156 38.285156 -82.589844 40.675781 -80.199219 C 42.496094 -78.382812 43.554688 -76.128906 43.851562 -73.441406 C 44.023438 -71.890625 43.914062 -70.21875 43.527344 -68.429688 L 36.675781 -35.535156 C 36.75 -35.894531 36.765625 -36.367188 36.71875 -36.957031 C 36.652344 -37.722656 36.472656 -38.476562 36.167969 -39.222656 C 35.679688 -40.4375 34.9375 -41.484375 33.945312 -42.367188 C 33.003906 -43.203125 31.933594 -43.808594 30.734375 -44.1875 C 29.660156 -44.527344 28.5625 -44.652344 27.449219 -44.570312 C 26.1875 -44.472656 25.035156 -44.128906 23.988281 -43.53125 C 23.613281 -43.316406 23.292969 -43.089844 23.023438 -42.855469 C 22.980469 -42.820312 22.949219 -42.789062 22.925781 -42.765625 C 22.929688 -42.773438 22.945312 -42.789062 22.964844 -42.808594 L 29.695312 -36.5625 L 22.765625 -42.585938 C 25.75 -46.019531 28.640625 -49.09375 31.429688 -51.808594 C 34.671875 -54.964844 38.058594 -57.46875 41.589844 -59.324219 C 45.675781 -61.472656 50.058594 -62.546875 54.738281 -62.546875 C 60.484375 -62.546875 65.210938 -60.792969 68.917969 -57.289062 C 70.765625 -55.542969 72.179688 -53.582031 73.160156 -51.40625 C 74.1875 -49.132812 74.699219 -46.71875 74.699219 -44.171875 C 74.699219 -39.96875 73.511719 -36.394531 71.136719 -33.445312 C 69.644531 -31.59375 67.792969 -30.210938 65.582031 -29.292969 C 63.691406 -28.511719 61.625 -28.121094 59.386719 -28.121094 C 57.5 -28.121094 55.757812 -28.410156 54.164062 -28.992188 C 52.03125 -29.765625 50.257812 -31 48.847656 -32.691406 C 47.292969 -34.5625 46.230469 -36.527344 45.671875 -38.585938 C 45.714844 -38.429688 45.785156 -38.257812 45.882812 -38.066406 C 46.207031 -37.433594 46.667969 -36.84375 47.265625 -36.292969 C 48.113281 -35.519531 49.054688 -34.980469 50.097656 -34.679688 C 50.597656 -34.535156 51.054688 -34.460938 51.464844 -34.460938 C 52.167969 -34.460938 52.816406 -34.558594 53.410156 -34.75 C 53.625 -34.820312 53.792969 -34.886719 53.90625 -34.949219 C 53.648438 -34.808594 53.234375 -34.503906 52.667969 -34.035156 L 46.8125 -41.105469 L 52.988281 -34.3125 C 53.363281 -34.652344 53.679688 -35.203125 53.945312 -35.960938 C 54.1875 -36.644531 54.300781 -37.300781 54.289062 -37.921875 C 54.285156 -38.050781 54.277344 -38.164062 54.265625 -38.257812 L 54.269531 -38.242188 C 55.652344 -32.585938 56.804688 -28.035156 57.738281 -24.585938 C 58.441406 -21.980469 59.042969 -20.289062 59.550781 -19.503906 C 59.308594 -19.878906 58.917969 -20.230469 58.382812 -20.5625 C 57.546875 -21.078125 56.648438 -21.332031 55.691406 -21.332031 C 55.578125 -21.332031 55.402344 -21.304688 55.160156 -21.246094 C 54.453125 -21.082031 53.761719 -20.761719 53.089844 -20.289062 C 53.574219 -20.628906 54.074219 -21 54.597656 -21.40625 L 60.234375 -14.160156 L 54.03125 -20.929688 C 55.332031 -22.125 56.734375 -23 58.234375 -23.558594 C 60.585938 -24.433594 62.929688 -24.5 65.269531 -23.761719 C 66.863281 -23.257812 68.28125 -22.449219 69.519531 -21.339844 C 70.644531 -20.332031 71.554688 -19.132812 72.25 -17.738281 C 73 -16.238281 73.417969 -14.667969 73.5 -13.035156 C 73.582031 -11.34375 73.304688 -9.703125 72.667969 -8.109375 L 64.144531 -11.519531 L 72.796875 -8.449219 C 71.710938 -5.394531 70.171875 -2.527344 68.175781 0.152344 C 65.921875 3.175781 63.050781 5.625 59.566406 7.503906 C 55.917969 9.46875 51.597656 10.449219 46.601562 10.449219 Z M 46.601562 -7.914062 C 48.511719 -7.914062 49.929688 -8.164062 50.863281 -8.664062 C 51.957031 -9.253906 52.820312 -9.972656 53.453125 -10.824219 C 54.347656 -12.019531 55.023438 -13.273438 55.492188 -14.589844 L 55.550781 -14.757812 L 55.621094 -14.929688 C 55.261719 -14.039062 55.109375 -13.101562 55.160156 -12.117188 C 55.207031 -11.1875 55.429688 -10.324219 55.828125 -9.527344 C 56.171875 -8.835938 56.648438 -8.214844 57.261719 -7.667969 C 57.988281 -7.015625 58.816406 -6.542969 59.742188 -6.25 C 61.414062 -5.722656 63.042969 -5.753906 64.636719 -6.347656 C 65.378906 -6.625 65.980469 -6.972656 66.4375 -7.390625 L 66.164062 -7.140625 L 65.871094 -6.914062 C 65.125 -6.332031 64.394531 -5.789062 63.679688 -5.285156 C 61.492188 -3.742188 58.832031 -2.972656 55.691406 -2.972656 C 53.179688 -2.972656 50.867188 -3.625 48.746094 -4.929688 C 46.921875 -6.054688 45.378906 -7.597656 44.117188 -9.558594 C 42.578125 -11.941406 41.210938 -15.355469 40.011719 -19.796875 C 39.039062 -23.394531 37.835938 -28.140625 36.398438 -34.039062 C 35.707031 -36.972656 35.777344 -39.636719 36.617188 -42.027344 C 37.375 -44.195312 38.714844 -46.152344 40.636719 -47.902344 L 40.796875 -48.042969 L 40.960938 -48.179688 C 42.433594 -49.402344 43.820312 -50.363281 45.113281 -51.070312 C 47.257812 -52.238281 49.375 -52.824219 51.464844 -52.824219 C 54.757812 -52.824219 57.496094 -51.824219 59.675781 -49.828125 C 61.371094 -48.273438 62.609375 -46.136719 63.386719 -43.417969 C 63.289062 -43.765625 63.167969 -44.070312 63.023438 -44.332031 C 62.988281 -44.386719 62.960938 -44.4375 62.933594 -44.472656 L 62.929688 -44.480469 C 62.933594 -44.472656 62.945312 -44.460938 62.953125 -44.449219 C 62.25 -45.296875 61.410156 -45.894531 60.4375 -46.25 C 60.007812 -46.40625 59.65625 -46.484375 59.386719 -46.484375 C 59.195312 -46.484375 58.917969 -46.410156 58.558594 -46.261719 C 57.878906 -45.980469 57.304688 -45.546875 56.835938 -44.964844 C 56.609375 -44.683594 56.453125 -44.398438 56.363281 -44.105469 C 56.34375 -44.042969 56.332031 -43.996094 56.328125 -43.96875 C 56.332031 -44.011719 56.335938 -44.082031 56.335938 -44.171875 C 56.335938 -44.089844 56.363281 -43.984375 56.421875 -43.859375 C 56.441406 -43.816406 56.457031 -43.785156 56.46875 -43.769531 C 56.433594 -43.816406 56.378906 -43.875 56.304688 -43.945312 C 56.285156 -43.960938 56.242188 -43.984375 56.164062 -44.011719 C 55.832031 -44.125 55.355469 -44.183594 54.738281 -44.183594 C 53.078125 -44.183594 51.542969 -43.8125 50.132812 -43.070312 C 48.171875 -42.039062 46.203125 -40.566406 44.234375 -38.648438 C 41.808594 -36.289062 39.273438 -33.585938 36.621094 -30.539062 L 36.523438 -30.425781 L 36.421875 -30.316406 C 35.328125 -29.136719 34.21875 -28.226562 33.101562 -27.585938 C 31.746094 -26.816406 30.324219 -26.371094 28.828125 -26.257812 C 27.597656 -26.164062 26.394531 -26.304688 25.222656 -26.671875 C 23.921875 -27.082031 22.765625 -27.738281 21.746094 -28.644531 C 19.757812 -30.410156 18.648438 -32.675781 18.417969 -35.429688 C 18.316406 -36.652344 18.410156 -37.933594 18.699219 -39.28125 L 25.582031 -72.328125 C 25.589844 -72.355469 25.59375 -72.371094 25.59375 -72.378906 C 25.589844 -72.351562 25.585938 -72.3125 25.582031 -72.265625 C 25.558594 -72.011719 25.566406 -71.726562 25.601562 -71.414062 C 25.777344 -69.832031 26.476562 -68.433594 27.695312 -67.214844 C 28.601562 -66.308594 29.578125 -65.726562 30.628906 -65.464844 C 30.753906 -65.4375 30.84375 -65.417969 30.898438 -65.414062 C 30.816406 -65.421875 30.699219 -65.425781 30.539062 -65.425781 C 29.148438 -65.425781 27.160156 -65.085938 24.582031 -64.40625 C 21.402344 -63.570312 18.488281 -62.71875 15.835938 -61.859375 L 12.996094 -70.589844 L 16.136719 -61.960938 C 14.949219 -61.53125 13.949219 -61.105469 13.132812 -60.683594 C 13.777344 -61.015625 14.34375 -61.503906 14.835938 -62.148438 C 15.398438 -62.882812 15.757812 -63.6875 15.910156 -64.554688 L 15.871094 -64.351562 C 16.152344 -65.746094 15.96875 -67.160156 15.320312 -68.597656 C 14.878906 -69.582031 14.257812 -70.4375 13.460938 -71.160156 C 12.820312 -71.742188 12.117188 -72.191406 11.351562 -72.511719 C 12.464844 -72.046875 13.679688 -71.464844 14.992188 -70.765625 L 15.113281 -70.703125 L 15.226562 -70.636719 C 16.863281 -69.703125 18.207031 -68.511719 19.261719 -67.0625 C 20.4375 -65.445312 21.167969 -63.636719 21.453125 -61.636719 C 21.734375 -59.667969 21.644531 -57.421875 21.183594 -54.894531 L 21.15625 -54.742188 L 13.101562 -17.539062 C 12.570312 -15.03125 12.050781 -12.859375 11.542969 -11.027344 C 11.054688 -9.261719 10.566406 -7.601562 10.074219 -6.050781 C 9.644531 -4.703125 9.203125 -3.207031 8.742188 -1.558594 C 8.871094 -2.023438 8.90625 -2.558594 8.847656 -3.15625 C 8.753906 -4.082031 8.453125 -4.945312 7.945312 -5.742188 C 7.191406 -6.914062 6.199219 -7.761719 4.957031 -8.277344 C 4.355469 -8.527344 3.789062 -8.652344 3.253906 -8.652344 C 7.820312 -8.714844 11.125 -8.929688 13.164062 -9.300781 C 13.730469 -9.402344 14.125 -9.5 14.347656 -9.597656 C 13.996094 -9.445312 13.617188 -9.140625 13.199219 -8.679688 C 12.90625 -8.351562 12.695312 -8.011719 12.558594 -7.660156 C 12.527344 -7.574219 12.507812 -7.507812 12.496094 -7.453125 C 12.5 -7.472656 12.503906 -7.511719 12.507812 -7.574219 L 12.519531 -7.726562 L 12.539062 -7.882812 C 12.765625 -9.929688 13.015625 -11.796875 13.28125 -13.488281 C 13.554688 -15.191406 13.84375 -16.785156 14.160156 -18.269531 L 14.195312 -18.4375 L 14.234375 -18.605469 C 14.59375 -20.042969 14.96875 -21.296875 15.359375 -22.371094 C 15.925781 -23.929688 16.804688 -25.542969 17.996094 -27.210938 L 20.746094 -31.0625 L 20.863281 -31.210938 C 21.84375 -32.472656 22.96875 -33.46875 24.234375 -34.199219 C 25.273438 -34.796875 26.371094 -35.203125 27.53125 -35.410156 C 28.9375 -35.664062 30.328125 -35.617188 31.710938 -35.273438 C 33.238281 -34.890625 34.597656 -34.183594 35.785156 -33.148438 C 36.753906 -32.308594 37.535156 -31.3125 38.136719 -30.15625 C 38.824219 -28.832031 39.230469 -27.386719 39.359375 -25.832031 C 39.613281 -23.234375 40.011719 -20.546875 40.554688 -17.769531 C 41.027344 -15.355469 41.695312 -13.148438 42.558594 -11.148438 C 43.085938 -9.925781 43.769531 -8.980469 44.601562 -8.308594 C 44.925781 -8.042969 45.59375 -7.914062 46.601562 -7.914062 Z M 46.601562 -7.914062 "/></g></g></g><g fill="#db0227" fill-opacity="1"><g transform="translate(200.674301, 112.778113)"><g><path d="M 19.878906 -48.730469 C 14.421875 -48.597656 10.152344 -50.027344 7.074219 -53.015625 C 5.347656 -54.695312 4.140625 -56.628906 3.457031 -58.816406 C 2.753906 -61.066406 2.660156 -63.386719 3.179688 -65.777344 C 4.03125 -69.742188 6.132812 -73.167969 9.484375 -76.0625 C 12.167969 -78.378906 15.4375 -80.203125 19.292969 -81.539062 C 23.015625 -82.824219 26.902344 -83.46875 30.960938 -83.46875 L 30.960938 -74.289062 L 30.726562 -83.464844 C 36.101562 -83.605469 40.296875 -82.164062 43.320312 -79.140625 C 45.039062 -77.421875 46.21875 -75.417969 46.851562 -73.132812 C 47.441406 -71 47.507812 -68.773438 47.046875 -66.464844 L 47.019531 -66.332031 L 46.988281 -66.199219 C 46.125 -62.457031 44.058594 -59.140625 40.789062 -56.253906 C 38.097656 -53.882812 34.886719 -52.039062 31.152344 -50.726562 C 27.628906 -49.488281 23.867188 -48.824219 19.867188 -48.730469 Z M 19.441406 -67.085938 C 21.5 -67.136719 23.375 -67.457031 25.066406 -68.050781 C 26.546875 -68.570312 27.738281 -69.230469 28.640625 -70.023438 C 28.910156 -70.261719 29.09375 -70.457031 29.195312 -70.609375 C 29.160156 -70.558594 29.128906 -70.464844 29.097656 -70.328125 L 38.042969 -68.265625 L 29.039062 -70.066406 C 28.929688 -69.515625 28.96875 -68.90625 29.15625 -68.230469 C 29.382812 -67.40625 29.777344 -66.71875 30.335938 -66.160156 C 30.890625 -65.605469 31.449219 -65.25 32.019531 -65.089844 C 32.046875 -65.082031 32.066406 -65.078125 32.074219 -65.074219 C 32.042969 -65.082031 32.003906 -65.085938 31.949219 -65.089844 C 31.75 -65.113281 31.496094 -65.117188 31.199219 -65.109375 L 30.960938 -65.109375 C 28.960938 -65.109375 27.074219 -64.800781 25.300781 -64.1875 C 23.660156 -63.617188 22.386719 -62.941406 21.480469 -62.160156 C 21.273438 -61.980469 21.136719 -61.839844 21.070312 -61.734375 C 21.09375 -61.769531 21.113281 -61.820312 21.125 -61.875 C 21.292969 -62.648438 21.246094 -63.453125 20.980469 -64.292969 C 20.738281 -65.070312 20.367188 -65.703125 19.871094 -66.183594 C 19.355469 -66.683594 18.855469 -67 18.367188 -67.132812 C 18.53125 -67.089844 18.886719 -67.074219 19.429688 -67.085938 Z M 15.957031 10.449219 C 9.054688 10.449219 3.816406 8.59375 0.25 4.882812 C -3.21875 1.273438 -4.953125 -3.347656 -4.953125 -8.980469 C -4.953125 -12.917969 -4.367188 -17.195312 -3.191406 -21.8125 L 0.363281 -36.875 C 0.40625 -37.054688 0.429688 -37.164062 0.429688 -37.203125 C 0.421875 -36.96875 0.453125 -36.6875 0.53125 -36.363281 C 0.847656 -35.058594 1.578125 -34.019531 2.726562 -33.257812 L 7.820312 -40.894531 L 3.5 -32.792969 C 2.699219 -33.222656 2.011719 -33.554688 1.433594 -33.792969 C -1.222656 -34.902344 -3.125 -36.734375 -4.277344 -39.292969 C -5.242188 -41.433594 -5.476562 -43.730469 -4.988281 -46.183594 L 4.015625 -44.382812 L -5.027344 -45.976562 C -4.65625 -48.078125 -3.832031 -49.945312 -2.550781 -51.589844 C -1.332031 -53.152344 0.210938 -54.382812 2.070312 -55.285156 C 3.515625 -55.988281 5.160156 -56.671875 7.007812 -57.34375 C 10.125 -58.433594 13.472656 -59.453125 17.054688 -60.394531 C 21.167969 -61.476562 24.710938 -62.019531 27.6875 -62.019531 C 32.054688 -62.019531 35.433594 -60.820312 37.824219 -58.429688 C 39.640625 -56.613281 40.699219 -54.359375 41 -51.671875 C 41.171875 -50.121094 41.0625 -48.449219 40.671875 -46.660156 L 34.011719 -16.3125 C 33.996094 -16.226562 33.980469 -16.140625 33.96875 -16.050781 C 33.972656 -16.082031 33.976562 -16.144531 33.972656 -16.234375 C 33.960938 -17.085938 33.714844 -17.972656 33.230469 -18.894531 C 32.710938 -19.890625 31.949219 -20.726562 30.945312 -21.40625 C 29.664062 -22.273438 28.261719 -22.707031 26.734375 -22.707031 C 25.15625 -22.707031 23.769531 -22.1875 22.570312 -21.152344 C 23.046875 -21.5625 23.644531 -22.09375 24.363281 -22.75 L 24.511719 -22.882812 L 24.660156 -23.011719 C 26.066406 -24.179688 27.589844 -25.003906 29.238281 -25.484375 C 31.25 -26.070312 33.273438 -26.109375 35.300781 -25.601562 C 37.464844 -25.0625 39.304688 -23.988281 40.824219 -22.375 C 42.089844 -21.035156 43.007812 -19.433594 43.589844 -17.570312 C 44.652344 -14.140625 44.144531 -10.433594 42.066406 -6.4375 L 33.921875 -10.671875 L 42.25 -6.808594 C 40.890625 -3.878906 38.941406 -1.121094 36.40625 1.460938 C 33.882812 4.039062 30.96875 6.136719 27.675781 7.761719 C 24.035156 9.554688 20.128906 10.449219 15.957031 10.449219 Z M 15.957031 -7.914062 C 17.277344 -7.914062 18.480469 -8.179688 19.5625 -8.710938 C 20.984375 -9.414062 22.230469 -10.308594 23.296875 -11.394531 C 24.355469 -12.472656 25.121094 -13.523438 25.59375 -14.539062 L 25.679688 -14.726562 L 25.777344 -14.910156 C 25.847656 -15.046875 25.898438 -15.152344 25.925781 -15.226562 C 25.90625 -15.175781 25.882812 -15.089844 25.855469 -14.96875 C 25.667969 -14.09375 25.734375 -13.148438 26.050781 -12.125 C 26.3125 -11.28125 26.785156 -10.5 27.464844 -9.777344 C 28.40625 -8.78125 29.53125 -8.117188 30.847656 -7.789062 C 32.035156 -7.492188 33.210938 -7.515625 34.378906 -7.855469 C 35.179688 -8.089844 35.859375 -8.4375 36.417969 -8.902344 L 30.539062 -15.957031 L 36.714844 -9.164062 C 35.886719 -8.410156 35.179688 -7.78125 34.597656 -7.273438 C 32.34375 -5.320312 29.722656 -4.34375 26.734375 -4.34375 C 24.503906 -4.34375 22.476562 -4.964844 20.648438 -6.203125 C 19.101562 -7.25 17.871094 -8.640625 16.964844 -10.375 C 15.558594 -13.058594 15.265625 -16.347656 16.078125 -20.25 L 22.730469 -50.558594 C 22.734375 -50.585938 22.738281 -50.601562 22.742188 -50.613281 C 22.738281 -50.582031 22.730469 -50.542969 22.726562 -50.496094 C 22.707031 -50.242188 22.714844 -49.957031 22.75 -49.644531 C 22.925781 -48.0625 23.621094 -46.664062 24.839844 -45.445312 C 25.746094 -44.539062 26.726562 -43.957031 27.773438 -43.699219 C 27.898438 -43.667969 27.988281 -43.648438 28.046875 -43.644531 C 27.964844 -43.652344 27.84375 -43.65625 27.6875 -43.65625 C 26.292969 -43.65625 24.308594 -43.316406 21.726562 -42.636719 C 18.617188 -41.816406 15.800781 -40.96875 13.28125 -40.085938 C 12.027344 -39.632812 10.960938 -39.191406 10.082031 -38.761719 C 10.78125 -39.101562 11.398438 -39.613281 11.929688 -40.296875 C 12.523438 -41.054688 12.898438 -41.886719 13.058594 -42.789062 L 13.039062 -42.683594 L 13.019531 -42.582031 C 13.296875 -43.976562 13.113281 -45.394531 12.46875 -46.828125 C 12.023438 -47.8125 11.402344 -48.667969 10.609375 -49.394531 C 9.96875 -49.972656 9.265625 -50.425781 8.496094 -50.746094 C 9.613281 -50.28125 10.828125 -49.699219 12.140625 -48.996094 L 12.539062 -48.785156 L 12.914062 -48.535156 C 15.75 -46.644531 17.574219 -44.023438 18.382812 -40.671875 C 18.972656 -38.222656 18.925781 -35.550781 18.234375 -32.65625 L 14.605469 -17.285156 C 13.804688 -14.152344 13.40625 -11.386719 13.40625 -8.980469 C 13.40625 -8.441406 13.453125 -8.042969 13.546875 -7.777344 L 13.550781 -7.757812 C 13.53125 -7.789062 13.511719 -7.816406 13.488281 -7.84375 C 13.320312 -8.015625 13.15625 -8.148438 12.996094 -8.242188 C 12.972656 -8.253906 12.957031 -8.261719 12.957031 -8.261719 C 12.996094 -8.246094 13.050781 -8.226562 13.117188 -8.207031 C 13.765625 -8.011719 14.714844 -7.914062 15.957031 -7.914062 Z M 15.957031 -7.914062 "/></g></g></g><g fill="#db0227" fill-opacity="1"><g transform="translate(13.230271, 112.778113)"><g><path d="M 17.21875 19.34375 C 12.5 19.34375 8.75 18.671875 5.96875 17.328125 C 3.1875 15.992188 1.125 14.515625 -0.21875 12.890625 C -1.832031 11.054688 -2.617188 9.117188 -2.578125 7.078125 C -2.546875 5.035156 -1.914062 3.289062 -0.6875 1.84375 C 0.539062 0.40625 2.109375 -0.3125 4.015625 -0.3125 C 5.921875 -0.3125 7.328125 0.175781 8.234375 1.15625 C 9.148438 2.144531 10 3.519531 10.78125 5.28125 C 11.769531 7.394531 12.859375 8.960938 14.046875 9.984375 C 15.242188 11.003906 16.9375 11.515625 19.125 11.515625 C 21.445312 11.515625 23.71875 10.507812 25.9375 8.5 C 28.15625 6.5 30.21875 3.929688 32.125 0.796875 C 34.03125 -2.335938 35.582031 -5.523438 36.78125 -8.765625 C 33.957031 -6.160156 31.242188 -4.398438 28.640625 -3.484375 C 26.035156 -2.566406 23.675781 -2.109375 21.5625 -2.109375 C 14.726562 -2.109375 10.144531 -3.972656 7.8125 -7.703125 C 5.488281 -11.441406 5.035156 -16.585938 6.453125 -23.140625 L 9.1875 -34.765625 C 9.46875 -36.316406 9.535156 -37.582031 9.390625 -38.5625 C 9.253906 -39.550781 8.695312 -40.328125 7.71875 -40.890625 C 6.65625 -41.453125 5.703125 -41.910156 4.859375 -42.265625 C 4.015625 -42.617188 3.695312 -43.320312 3.90625 -44.375 C 4.125 -45.570312 4.8125 -46.46875 5.96875 -47.0625 C 7.132812 -47.664062 8.488281 -48.253906 10.03125 -48.828125 C 12.851562 -49.734375 15.9375 -50.628906 19.28125 -51.515625 C 22.625 -52.398438 25.390625 -52.84375 27.578125 -52.84375 C 29.410156 -52.84375 30.625 -52.539062 31.21875 -51.9375 C 31.820312 -51.34375 31.945312 -50.234375 31.59375 -48.609375 L 25.46875 -19.859375 C 24.757812 -16.691406 24.582031 -14.457031 24.9375 -13.15625 C 25.289062 -11.851562 26.242188 -11.203125 27.796875 -11.203125 C 30.191406 -11.203125 32.179688 -11.765625 33.765625 -12.890625 C 35.347656 -14.015625 36.648438 -15.457031 37.671875 -17.21875 C 38.691406 -18.976562 39.519531 -20.828125 40.15625 -22.765625 C 40.789062 -24.703125 41.316406 -26.445312 41.734375 -28 C 42.296875 -30.039062 42.503906 -32.207031 42.359375 -34.5 C 42.222656 -36.789062 41.207031 -38.78125 39.3125 -40.46875 C 38.601562 -41.101562 38.035156 -41.96875 37.609375 -43.0625 C 37.191406 -44.15625 37.054688 -45.300781 37.203125 -46.5 C 37.410156 -49.03125 38.460938 -50.894531 40.359375 -52.09375 C 42.265625 -53.289062 44.503906 -53.75 47.078125 -53.46875 C 49.648438 -53.1875 51.957031 -52.0625 54 -50.09375 C 56.1875 -48.113281 57.894531 -45.414062 59.125 -42 C 60.351562 -38.582031 60.898438 -34.90625 60.765625 -30.96875 C 60.617188 -26.875 60 -22.609375 58.90625 -18.171875 C 57.820312 -13.734375 56.289062 -9.4375 54.3125 -5.28125 C 52.34375 -1.125 49.914062 2.609375 47.03125 5.921875 C 43.5 10.078125 39.25 13.351562 34.28125 15.75 C 29.320312 18.144531 23.632812 19.34375 17.21875 19.34375 Z M 17.21875 19.34375 "/></g></g></g><g fill="#db0227" fill-opacity="1"><g transform="translate(72.189518, 112.778113)"><g><path d="M 17.4375 1.265625 C 12.789062 1.265625 9.351562 -0.492188 7.125 -4.015625 C 4.90625 -7.535156 4.46875 -12.394531 5.8125 -18.59375 L 9.296875 -34.765625 C 9.578125 -36.316406 9.644531 -37.582031 9.5 -38.5625 C 9.363281 -39.550781 8.800781 -40.328125 7.8125 -40.890625 C 6.757812 -41.453125 5.8125 -41.910156 4.96875 -42.265625 C 4.125 -42.617188 3.804688 -43.320312 4.015625 -44.375 C 4.222656 -45.570312 4.90625 -46.46875 6.0625 -47.0625 C 7.226562 -47.664062 8.585938 -48.253906 10.140625 -48.828125 C 12.960938 -49.734375 16.046875 -50.628906 19.390625 -51.515625 C 22.734375 -52.398438 25.5 -52.84375 27.6875 -52.84375 C 29.519531 -52.84375 30.734375 -52.539062 31.328125 -51.9375 C 31.929688 -51.34375 32.054688 -50.234375 31.703125 -48.609375 L 26 -21.453125 C 25.570312 -19.546875 25.566406 -17.921875 25.984375 -16.578125 C 26.410156 -15.242188 27.4375 -14.578125 29.0625 -14.578125 C 31.382812 -14.578125 33.707031 -15.828125 36.03125 -18.328125 C 38.351562 -20.828125 39.972656 -24.472656 40.890625 -29.265625 L 41.953125 -34.765625 C 42.234375 -36.316406 42.300781 -37.582031 42.15625 -38.5625 C 42.019531 -39.550781 41.457031 -40.328125 40.46875 -40.890625 C 39.414062 -41.453125 38.460938 -41.910156 37.609375 -42.265625 C 36.765625 -42.617188 36.453125 -43.320312 36.671875 -44.375 C 36.878906 -45.570312 37.5625 -46.46875 38.71875 -47.0625 C 39.882812 -47.664062 41.242188 -48.253906 42.796875 -48.828125 C 45.617188 -49.734375 48.703125 -50.628906 52.046875 -51.515625 C 55.390625 -52.398438 58.15625 -52.84375 60.34375 -52.84375 C 62.175781 -52.84375 63.390625 -52.539062 63.984375 -51.9375 C 64.578125 -51.34375 64.703125 -50.234375 64.359375 -48.609375 L 57.796875 -17.21875 C 57.515625 -15.957031 57.566406 -15.023438 57.953125 -14.421875 C 58.347656 -13.828125 58.894531 -13.53125 59.59375 -13.53125 C 60.300781 -13.53125 60.914062 -13.738281 61.4375 -14.15625 C 61.96875 -14.582031 62.691406 -15.144531 63.609375 -15.84375 C 64.390625 -16.476562 65.179688 -16.707031 65.984375 -16.53125 C 66.796875 -16.363281 67.359375 -15.785156 67.671875 -14.796875 C 67.992188 -13.804688 67.734375 -12.429688 66.890625 -10.671875 C 65.546875 -7.566406 63.34375 -4.800781 60.28125 -2.375 C 57.21875 0.0507812 53.679688 1.265625 49.671875 1.265625 C 47.128906 1.265625 45.082031 0.703125 43.53125 -0.421875 C 41.988281 -1.546875 40.878906 -3.003906 40.203125 -4.796875 C 39.535156 -6.597656 39.164062 -8.519531 39.09375 -10.5625 C 39.03125 -11.125 38.820312 -11.457031 38.46875 -11.5625 C 38.113281 -11.675781 37.722656 -11.414062 37.296875 -10.78125 C 36.097656 -9.019531 34.566406 -7.203125 32.703125 -5.328125 C 30.835938 -3.460938 28.632812 -1.894531 26.09375 -0.625 C 23.5625 0.632812 20.675781 1.265625 17.4375 1.265625 Z M 17.4375 1.265625 "/></g></g></g><g fill="#db0227" fill-opacity="1"><g transform="translate(138.228176, 112.778113)"><g><path d="M 46.59375 1.265625 C 43.425781 1.265625 40.835938 0.457031 38.828125 -1.15625 C 36.828125 -2.78125 35.257812 -4.894531 34.125 -7.5 C 33 -10.101562 32.132812 -12.9375 31.53125 -16 C 30.9375 -19.070312 30.5 -22.050781 30.21875 -24.9375 C 30.144531 -25.78125 29.894531 -26.253906 29.46875 -26.359375 C 29.050781 -26.472656 28.597656 -26.210938 28.109375 -25.578125 L 25.46875 -21.875 C 24.757812 -20.882812 24.265625 -20 23.984375 -19.21875 C 23.703125 -18.445312 23.421875 -17.5 23.140625 -16.375 C 22.859375 -15.039062 22.59375 -13.597656 22.34375 -12.046875 C 22.101562 -10.492188 21.875 -8.769531 21.65625 -6.875 C 21.519531 -5.039062 20.972656 -3.59375 20.015625 -2.53125 C 19.066406 -1.476562 17.320312 -0.722656 14.78125 -0.265625 C 12.25 0.191406 8.445312 0.457031 3.375 0.53125 C 1.832031 0.53125 0.773438 0.09375 0.203125 -0.78125 C -0.359375 -1.664062 -0.460938 -2.742188 -0.109375 -4.015625 C 0.390625 -5.773438 0.863281 -7.375 1.3125 -8.8125 C 1.769531 -10.257812 2.226562 -11.8125 2.6875 -13.46875 C 3.144531 -15.125 3.625 -17.113281 4.125 -19.4375 L 12.15625 -56.53125 C 12.4375 -58.082031 12.503906 -59.347656 12.359375 -60.328125 C 12.222656 -61.316406 11.660156 -62.09375 10.671875 -62.65625 C 9.617188 -63.226562 8.664062 -63.6875 7.8125 -64.03125 C 6.96875 -64.382812 6.65625 -65.09375 6.875 -66.15625 C 7.082031 -67.351562 7.765625 -68.25 8.921875 -68.84375 C 10.085938 -69.445312 11.445312 -70.03125 13 -70.59375 C 15.8125 -71.507812 18.890625 -72.40625 22.234375 -73.28125 C 25.585938 -74.164062 28.359375 -74.609375 30.546875 -74.609375 C 32.367188 -74.609375 33.578125 -74.304688 34.171875 -73.703125 C 34.773438 -73.109375 34.90625 -72 34.5625 -70.375 L 27.6875 -37.40625 C 27.476562 -36.414062 27.53125 -35.78125 27.84375 -35.5 C 28.15625 -35.21875 28.769531 -35.570312 29.6875 -36.5625 C 32.507812 -39.800781 35.222656 -42.6875 37.828125 -45.21875 C 40.429688 -47.757812 43.109375 -49.75 45.859375 -51.1875 C 48.609375 -52.632812 51.566406 -53.359375 54.734375 -53.359375 C 58.046875 -53.359375 60.671875 -52.441406 62.609375 -50.609375 C 64.546875 -48.785156 65.515625 -46.640625 65.515625 -44.171875 C 65.515625 -42.128906 65.003906 -40.472656 63.984375 -39.203125 C 62.960938 -37.929688 61.429688 -37.296875 59.390625 -37.296875 C 57.765625 -37.296875 56.597656 -37.71875 55.890625 -38.5625 C 55.191406 -39.414062 54.738281 -40.226562 54.53125 -41 C 54.25 -41.988281 53.894531 -42.675781 53.46875 -43.0625 C 53.050781 -43.445312 52.382812 -43.640625 51.46875 -43.640625 C 50.40625 -43.640625 48.851562 -42.796875 46.8125 -41.109375 C 46.039062 -40.398438 45.53125 -39.691406 45.28125 -38.984375 C 45.03125 -38.285156 45.046875 -37.335938 45.328125 -36.140625 C 46.742188 -30.359375 47.925781 -25.707031 48.875 -22.1875 C 49.820312 -18.664062 50.804688 -16.113281 51.828125 -14.53125 C 52.847656 -12.945312 54.132812 -12.15625 55.6875 -12.15625 C 56.882812 -12.15625 57.78125 -12.363281 58.375 -12.78125 C 58.976562 -13.207031 59.597656 -13.664062 60.234375 -14.15625 C 61.078125 -14.9375 61.832031 -15.21875 62.5 -15 C 63.175781 -14.789062 63.6875 -14.332031 64.03125 -13.625 C 64.382812 -12.925781 64.421875 -12.222656 64.140625 -11.515625 C 63.367188 -9.335938 62.257812 -7.28125 60.8125 -5.34375 C 59.363281 -3.40625 57.492188 -1.816406 55.203125 -0.578125 C 52.921875 0.648438 50.050781 1.265625 46.59375 1.265625 Z M 46.59375 1.265625 "/></g></g></g><g fill="#db0227" fill-opacity="1"><g transform="translate(200.674301, 112.778113)"><g><path d="M 19.65625 -57.90625 C 16.769531 -57.832031 14.707031 -58.394531 13.46875 -59.59375 C 12.238281 -60.789062 11.800781 -62.203125 12.15625 -63.828125 C 12.570312 -65.796875 13.675781 -67.554688 15.46875 -69.109375 C 17.269531 -70.660156 19.546875 -71.910156 22.296875 -72.859375 C 25.046875 -73.804688 27.9375 -74.28125 30.96875 -74.28125 C 33.707031 -74.351562 35.65625 -73.804688 36.8125 -72.640625 C 37.976562 -71.484375 38.390625 -70.023438 38.046875 -68.265625 C 37.617188 -66.429688 36.503906 -64.722656 34.703125 -63.140625 C 32.910156 -61.554688 30.710938 -60.304688 28.109375 -59.390625 C 25.503906 -58.472656 22.6875 -57.976562 19.65625 -57.90625 Z M 15.953125 1.265625 C 11.660156 1.265625 8.632812 0.347656 6.875 -1.484375 C 5.113281 -3.316406 4.234375 -5.816406 4.234375 -8.984375 C 4.234375 -12.148438 4.722656 -15.671875 5.703125 -19.546875 L 9.296875 -34.765625 C 10.003906 -37.722656 9.507812 -39.765625 7.8125 -40.890625 C 6.757812 -41.453125 5.8125 -41.910156 4.96875 -42.265625 C 4.125 -42.617188 3.804688 -43.320312 4.015625 -44.375 C 4.222656 -45.570312 4.90625 -46.453125 6.0625 -47.015625 C 7.226562 -47.585938 8.585938 -48.15625 10.140625 -48.71875 C 12.960938 -49.695312 16.046875 -50.628906 19.390625 -51.515625 C 22.734375 -52.398438 25.5 -52.84375 27.6875 -52.84375 C 29.519531 -52.84375 30.734375 -52.539062 31.328125 -51.9375 C 31.929688 -51.34375 32.054688 -50.234375 31.703125 -48.609375 L 25.046875 -18.28125 C 24.691406 -16.59375 24.707031 -15.378906 25.09375 -14.640625 C 25.476562 -13.898438 26.023438 -13.53125 26.734375 -13.53125 C 27.441406 -13.53125 28.054688 -13.757812 28.578125 -14.21875 C 29.109375 -14.675781 29.765625 -15.253906 30.546875 -15.953125 C 31.390625 -16.660156 32.234375 -16.90625 33.078125 -16.6875 C 33.921875 -16.476562 34.5 -15.863281 34.8125 -14.84375 C 35.132812 -13.820312 34.835938 -12.429688 33.921875 -10.671875 C 33.003906 -8.703125 31.644531 -6.800781 29.84375 -4.96875 C 28.050781 -3.132812 25.972656 -1.632812 23.609375 -0.46875 C 21.253906 0.6875 18.703125 1.265625 15.953125 1.265625 Z M 15.953125 1.265625 "/></g></g></g></g></g><g transform="matrix(1, 0, 0, 1, 38, 21)"><g clip-path="url(#837a3d1f1b)"><g fill="#fee4e3" fill-opacity="1"><g transform="translate(9.749486, 111.887773)"><g><path d="M 17.296875 24.925781 C 11.722656 24.925781 7.15625 24.074219 3.609375 22.367188 C 0.0898438 20.671875 -2.601562 18.703125 -4.457031 16.453125 L -0.210938 12.945312 L -4.335938 16.59375 C -6.910156 13.6875 -8.164062 10.492188 -8.105469 7.015625 C -8.046875 3.644531 -6.972656 0.734375 -4.878906 -1.71875 C -2.539062 -4.453125 0.429688 -5.824219 4.03125 -5.824219 C 7.542969 -5.824219 10.304688 -4.742188 12.3125 -2.578125 C 13.652344 -1.136719 14.835938 0.753906 15.863281 3.089844 L 10.824219 5.304688 L 15.8125 2.976562 C 16.464844 4.378906 17.089844 5.332031 17.6875 5.839844 C 17.734375 5.863281 17.800781 5.886719 17.882812 5.914062 C 18.210938 6.011719 18.652344 6.0625 19.207031 6.0625 C 20.128906 6.0625 21.179688 5.527344 22.359375 4.460938 C 24.191406 2.804688 25.921875 0.628906 27.554688 -2.058594 C 29.28125 -4.90625 30.6875 -7.792969 31.765625 -10.714844 L 36.929688 -8.808594 L 40.667969 -4.765625 C 37.28125 -1.632812 33.917969 0.519531 30.585938 1.691406 C 27.375 2.820312 24.398438 3.382812 21.648438 3.382812 C 12.746094 3.382812 6.589844 0.644531 3.179688 -4.835938 C 0.0585938 -9.847656 -0.636719 -16.367188 1.089844 -24.398438 L 3.875 -36.179688 L 9.234375 -34.914062 L 3.816406 -35.898438 C 3.992188 -36.871094 4.050781 -37.554688 3.996094 -37.957031 C 4.054688 -37.550781 4.207031 -37.171875 4.460938 -36.824219 C 4.640625 -36.574219 4.828125 -36.398438 5.015625 -36.289062 L 7.746094 -41.070312 L 5.15625 -36.210938 C 4.25 -36.695312 3.453125 -37.082031 2.765625 -37.367188 C 1 -38.101562 -0.257812 -39.308594 -1.015625 -40.984375 C -1.65625 -42.410156 -1.808594 -43.96875 -1.472656 -45.652344 L 3.925781 -44.570312 L -1.496094 -45.527344 C -1.234375 -47.011719 -0.660156 -48.332031 0.230469 -49.496094 C 1.074219 -50.601562 2.15625 -51.492188 3.476562 -52.171875 C 4.847656 -52.878906 6.425781 -53.558594 8.199219 -54.203125 L 8.378906 -54.265625 C 11.308594 -55.214844 14.503906 -56.148438 17.964844 -57.058594 C 21.785156 -58.0625 25.03125 -58.566406 27.699219 -58.566406 C 31.058594 -58.566406 33.574219 -57.730469 35.253906 -56.050781 C 37.269531 -54.035156 37.890625 -51.230469 37.109375 -47.648438 L 30.960938 -18.804688 C 30.65625 -17.433594 30.46875 -16.3125 30.402344 -15.445312 C 30.375 -15.121094 30.367188 -14.851562 30.378906 -14.644531 L 30.359375 -14.648438 C 30.183594 -15.300781 29.777344 -15.84375 29.136719 -16.28125 C 28.679688 -16.597656 28.269531 -16.753906 27.910156 -16.753906 C 29.144531 -16.753906 30.078125 -16.980469 30.714844 -17.433594 C 31.660156 -18.105469 32.445312 -18.980469 33.070312 -20.058594 C 33.902344 -21.496094 34.578125 -23.003906 35.09375 -24.582031 C 35.703125 -26.441406 36.207031 -28.101562 36.605469 -29.570312 C 37.011719 -31.042969 37.164062 -32.621094 37.058594 -34.3125 C 37.011719 -35.097656 36.597656 -35.839844 35.820312 -36.53125 C 34.445312 -37.769531 33.386719 -39.34375 32.644531 -41.257812 C 31.890625 -43.203125 31.640625 -45.230469 31.886719 -47.335938 L 37.355469 -46.695312 L 31.867188 -47.152344 C 32.042969 -49.226562 32.589844 -51.085938 33.519531 -52.722656 C 34.503906 -54.464844 35.867188 -55.882812 37.605469 -56.976562 C 40.597656 -58.863281 44.023438 -59.59375 47.878906 -59.171875 C 51.707031 -58.75 55.097656 -57.113281 58.050781 -54.261719 L 54.230469 -50.300781 L 57.917969 -54.386719 C 60.792969 -51.792969 63.003906 -48.347656 64.554688 -44.050781 C 66.035156 -39.953125 66.6875 -35.570312 66.523438 -30.898438 C 66.367188 -26.417969 65.695312 -21.765625 64.507812 -16.9375 C 63.324219 -12.121094 61.660156 -7.457031 59.519531 -2.945312 C 57.324219 1.6875 54.605469 5.855469 51.375 9.5625 C 47.367188 14.289062 42.519531 18.027344 36.828125 20.769531 C 31.085938 23.542969 24.574219 24.925781 17.296875 24.925781 Z M 17.296875 13.914062 C 22.898438 13.914062 27.8125 12.894531 32.046875 10.851562 C 36.332031 8.785156 40.007812 5.941406 43.074219 2.324219 C 45.644531 -0.621094 47.808594 -3.949219 49.574219 -7.667969 C 51.394531 -11.503906 52.808594 -15.472656 53.816406 -19.570312 C 54.824219 -23.65625 55.390625 -27.5625 55.519531 -31.289062 C 55.632812 -34.542969 55.195312 -37.550781 54.195312 -40.316406 C 53.269531 -42.882812 52.050781 -44.851562 50.539062 -46.214844 L 50.46875 -46.277344 L 50.40625 -46.339844 C 49.253906 -47.449219 48.011719 -48.078125 46.679688 -48.226562 C 45.367188 -48.367188 44.300781 -48.179688 43.472656 -47.660156 C 43.300781 -47.550781 43.175781 -47.429688 43.101562 -47.296875 C 42.96875 -47.0625 42.882812 -46.707031 42.839844 -46.238281 L 42.824219 -46.050781 C 42.789062 -45.753906 42.816406 -45.480469 42.914062 -45.230469 C 43.023438 -44.953125 43.097656 -44.796875 43.136719 -44.761719 C 46.175781 -42.054688 47.816406 -38.796875 48.050781 -34.988281 C 48.230469 -32.078125 47.957031 -29.304688 47.230469 -26.675781 C 46.78125 -25.027344 46.222656 -23.191406 45.558594 -21.15625 C 44.800781 -18.84375 43.8125 -16.636719 42.59375 -14.535156 C 41.171875 -12.078125 39.335938 -10.054688 37.097656 -8.460938 C 34.550781 -6.648438 31.488281 -5.742188 27.910156 -5.742188 C 25.996094 -5.742188 24.328125 -6.226562 22.914062 -7.199219 C 21.320312 -8.289062 20.261719 -9.816406 19.730469 -11.777344 C 19.140625 -13.957031 19.292969 -17.066406 20.191406 -21.097656 L 26.351562 -49.984375 C 26.386719 -50.160156 26.410156 -50.296875 26.421875 -50.402344 L 26.421875 -50.410156 C 26.421875 -50.371094 26.425781 -50.320312 26.429688 -50.265625 C 26.511719 -49.542969 26.855469 -48.875 27.464844 -48.265625 C 27.890625 -47.84375 28.292969 -47.585938 28.675781 -47.488281 C 28.5 -47.535156 28.171875 -47.554688 27.699219 -47.554688 C 25.980469 -47.554688 23.667969 -47.175781 20.769531 -46.410156 C 17.507812 -45.550781 14.515625 -44.679688 11.785156 -43.792969 L 10.082031 -49.027344 L 11.964844 -43.855469 C 10.625 -43.367188 9.476562 -42.878906 8.515625 -42.382812 C 8.667969 -42.460938 8.820312 -42.601562 8.976562 -42.804688 C 9.175781 -43.066406 9.300781 -43.335938 9.347656 -43.613281 L 9.335938 -43.554688 L 9.324219 -43.492188 C 9.449219 -44.113281 9.351562 -44.785156 9.027344 -45.503906 C 8.589844 -46.472656 7.914062 -47.148438 7 -47.53125 C 8.007812 -47.109375 9.121094 -46.574219 10.335938 -45.925781 L 10.410156 -45.890625 L 10.476562 -45.847656 C 11.65625 -45.175781 12.621094 -44.324219 13.367188 -43.300781 C 14.1875 -42.171875 14.695312 -40.910156 14.894531 -39.511719 C 15.121094 -37.933594 15.039062 -36.070312 14.648438 -33.929688 L 14.625 -33.789062 L 11.855469 -22.082031 C 10.753906 -16.957031 10.976562 -13.144531 12.527344 -10.65625 C 13.785156 -8.636719 16.824219 -7.628906 21.648438 -7.628906 C 23.144531 -7.628906 24.90625 -7.984375 26.933594 -8.695312 C 28.835938 -9.363281 30.921875 -10.75 33.191406 -12.851562 L 42.09375 -6.898438 C 40.769531 -3.316406 39.0625 0.203125 36.96875 3.652344 C 34.78125 7.257812 32.371094 10.25 29.746094 12.625 C 26.46875 15.589844 22.957031 17.074219 19.207031 17.074219 C 15.664062 17.074219 12.773438 16.121094 10.542969 14.21875 C 8.730469 12.675781 7.164062 10.480469 5.835938 7.632812 L 5.808594 7.578125 L 5.785156 7.523438 C 5.257812 6.320312 4.742188 5.449219 4.242188 4.914062 C 4.402344 5.085938 4.558594 5.195312 4.707031 5.25 C 4.589844 5.207031 4.363281 5.1875 4.03125 5.1875 C 3.816406 5.1875 3.636719 5.269531 3.496094 5.433594 C 3.113281 5.878906 2.917969 6.472656 2.90625 7.207031 C 2.894531 7.832031 3.230469 8.527344 3.910156 9.300781 L 3.972656 9.367188 L 4.03125 9.441406 C 4.863281 10.445312 6.3125 11.449219 8.382812 12.441406 C 10.421875 13.425781 13.394531 13.914062 17.296875 13.914062 Z M 17.296875 13.914062 "/></g></g></g><g fill="#fee4e3" fill-opacity="1"><g transform="translate(68.961718, 111.887773)"><g><path d="M 17.511719 6.777344 C 14.289062 6.777344 11.421875 6.132812 8.910156 4.847656 C 6.289062 3.503906 4.15625 1.519531 2.503906 -1.097656 C -0.523438 -5.902344 -1.207031 -12.148438 0.457031 -19.839844 L 3.957031 -36.074219 L 9.339844 -34.914062 L 3.921875 -35.898438 C 4.097656 -36.871094 4.15625 -37.554688 4.101562 -37.957031 C 4.160156 -37.550781 4.316406 -37.171875 4.566406 -36.824219 C 4.75 -36.574219 4.933594 -36.398438 5.121094 -36.289062 L 7.851562 -41.070312 L 5.261719 -36.210938 C 4.355469 -36.695312 3.558594 -37.082031 2.871094 -37.367188 C 1.105469 -38.101562 -0.152344 -39.308594 -0.910156 -40.984375 C -1.550781 -42.410156 -1.703125 -43.96875 -1.367188 -45.652344 L 4.03125 -44.570312 L -1.390625 -45.527344 C -1.128906 -47.011719 -0.550781 -48.332031 0.335938 -49.496094 C 1.183594 -50.601562 2.261719 -51.492188 3.582031 -52.171875 C 4.957031 -52.878906 6.53125 -53.558594 8.304688 -54.203125 L 8.484375 -54.265625 C 11.414062 -55.214844 14.609375 -56.148438 18.074219 -57.058594 C 21.890625 -58.0625 25.136719 -58.566406 27.804688 -58.566406 C 31.164062 -58.566406 33.683594 -57.730469 35.359375 -56.050781 C 37.375 -54.035156 37.996094 -51.230469 37.214844 -47.648438 L 31.492188 -20.410156 C 31.273438 -19.421875 31.226562 -18.722656 31.355469 -18.320312 C 31.175781 -18.894531 30.792969 -19.375 30.210938 -19.753906 C 29.808594 -20.019531 29.464844 -20.152344 29.183594 -20.152344 C 29.425781 -20.152344 29.722656 -20.246094 30.078125 -20.433594 C 30.710938 -20.773438 31.402344 -21.351562 32.15625 -22.160156 C 33.769531 -23.898438 34.941406 -26.65625 35.660156 -30.429688 L 36.722656 -35.953125 C 36.894531 -36.886719 36.949219 -37.554688 36.894531 -37.957031 C 36.949219 -37.550781 37.105469 -37.171875 37.359375 -36.824219 C 37.539062 -36.574219 37.726562 -36.398438 37.914062 -36.289062 L 40.644531 -41.070312 L 38.054688 -36.210938 C 37.148438 -36.695312 36.351562 -37.082031 35.660156 -37.367188 C 33.898438 -38.101562 32.636719 -39.308594 31.882812 -40.984375 C 31.242188 -42.410156 31.089844 -43.96875 31.425781 -45.652344 L 36.824219 -44.570312 L 31.402344 -45.527344 C 31.664062 -47.011719 32.238281 -48.332031 33.128906 -49.496094 C 33.972656 -50.601562 35.054688 -51.492188 36.371094 -52.171875 C 37.746094 -52.878906 39.324219 -53.558594 41.097656 -54.203125 L 41.277344 -54.265625 C 44.207031 -55.214844 47.402344 -56.148438 50.863281 -57.058594 C 54.683594 -58.0625 57.929688 -58.566406 60.597656 -58.566406 C 63.957031 -58.566406 66.472656 -57.730469 68.148438 -56.050781 C 70.167969 -54.035156 70.789062 -51.230469 70.007812 -47.648438 L 63.4375 -16.171875 C 63.402344 -16.015625 63.382812 -15.902344 63.375 -15.835938 C 63.378906 -15.851562 63.375 -15.890625 63.375 -15.949219 C 63.34375 -16.453125 63.164062 -16.960938 62.832031 -17.476562 C 62.519531 -17.953125 62.097656 -18.339844 61.558594 -18.636719 C 61.007812 -18.9375 60.441406 -19.089844 59.851562 -19.089844 C 59.273438 -19.089844 58.746094 -18.898438 58.269531 -18.519531 C 58.828125 -18.964844 59.582031 -19.554688 60.527344 -20.28125 L 63.886719 -15.917969 L 60.398438 -20.179688 C 61.371094 -20.972656 62.417969 -21.535156 63.539062 -21.859375 C 64.828125 -22.230469 66.128906 -22.273438 67.441406 -21.988281 C 68.933594 -21.664062 70.207031 -20.957031 71.261719 -19.871094 C 72.140625 -18.964844 72.792969 -17.851562 73.214844 -16.542969 C 73.980469 -14.160156 73.621094 -11.421875 72.140625 -8.335938 L 67.175781 -10.71875 L 72.230469 -8.535156 C 70.519531 -4.574219 67.765625 -1.089844 63.964844 1.925781 C 59.882812 5.160156 55.1875 6.777344 49.878906 6.777344 C 46.136719 6.777344 43.007812 5.863281 40.484375 4.027344 C 38.035156 2.246094 36.277344 -0.0664062 35.21875 -2.90625 C 34.339844 -5.269531 33.855469 -7.773438 33.761719 -10.421875 L 39.265625 -10.613281 L 33.800781 -9.929688 C 33.867188 -9.398438 34.066406 -8.875 34.398438 -8.347656 C 35.023438 -7.355469 35.90625 -6.6875 37.046875 -6.347656 C 37.859375 -6.101562 38.683594 -6.070312 39.511719 -6.246094 C 40.121094 -6.378906 40.675781 -6.613281 41.171875 -6.953125 C 41.570312 -7.222656 41.859375 -7.496094 42.042969 -7.769531 C 40.625 -5.6875 38.859375 -3.585938 36.738281 -1.464844 C 34.441406 0.828125 31.753906 2.746094 28.675781 4.289062 C 25.351562 5.949219 21.632812 6.777344 17.511719 6.777344 Z M 17.511719 -4.230469 C 19.898438 -4.230469 21.976562 -4.675781 23.75 -5.5625 C 25.765625 -6.566406 27.5 -7.796875 28.953125 -9.253906 C 30.582031 -10.882812 31.890625 -12.425781 32.878906 -13.878906 C 33.488281 -14.792969 34.183594 -15.515625 34.96875 -16.050781 C 35.660156 -16.523438 36.40625 -16.84375 37.203125 -17.015625 C 38.21875 -17.230469 39.21875 -17.191406 40.210938 -16.894531 C 41.703125 -16.445312 42.867188 -15.558594 43.707031 -14.230469 C 44.25 -13.367188 44.589844 -12.390625 44.726562 -11.296875 L 44.757812 -11.050781 L 44.769531 -10.800781 C 44.816406 -9.347656 45.074219 -7.996094 45.539062 -6.75 C 45.824219 -5.984375 46.296875 -5.359375 46.960938 -4.878906 C 47.550781 -4.445312 48.523438 -4.230469 49.878906 -4.230469 C 52.632812 -4.230469 55.046875 -5.054688 57.121094 -6.703125 C 59.476562 -8.570312 61.144531 -10.636719 62.121094 -12.902344 L 62.164062 -13 L 62.210938 -13.101562 C 62.429688 -13.558594 62.5625 -13.894531 62.605469 -14.121094 C 62.558594 -13.886719 62.601562 -13.570312 62.730469 -13.171875 C 62.832031 -12.851562 63.042969 -12.527344 63.355469 -12.207031 C 63.84375 -11.699219 64.425781 -11.375 65.105469 -11.226562 C 65.605469 -11.121094 66.101562 -11.136719 66.59375 -11.277344 C 66.917969 -11.371094 67.179688 -11.5 67.371094 -11.65625 L 67.308594 -11.605469 L 67.242188 -11.554688 C 66.351562 -10.867188 65.652344 -10.324219 65.148438 -9.921875 C 63.613281 -8.691406 61.847656 -8.078125 59.851562 -8.078125 C 58.558594 -8.078125 57.363281 -8.378906 56.265625 -8.980469 C 55.175781 -9.578125 54.285156 -10.414062 53.585938 -11.496094 C 52.363281 -13.386719 52.054688 -15.695312 52.660156 -18.421875 L 59.25 -49.984375 C 59.285156 -50.160156 59.308594 -50.296875 59.316406 -50.402344 L 59.320312 -50.410156 C 59.320312 -50.371094 59.324219 -50.320312 59.328125 -50.265625 C 59.410156 -49.542969 59.753906 -48.875 60.363281 -48.265625 C 60.789062 -47.84375 61.191406 -47.585938 61.574219 -47.488281 C 61.394531 -47.535156 61.070312 -47.554688 60.597656 -47.554688 C 58.878906 -47.554688 56.566406 -47.175781 53.667969 -46.410156 C 50.40625 -45.550781 47.410156 -44.679688 44.679688 -43.792969 L 42.980469 -49.027344 L 44.859375 -43.855469 C 43.523438 -43.367188 42.375 -42.878906 41.414062 -42.382812 C 41.566406 -42.460938 41.71875 -42.601562 41.875 -42.804688 C 42.074219 -43.066406 42.195312 -43.335938 42.246094 -43.613281 L 42.234375 -43.554688 L 42.222656 -43.492188 C 42.347656 -44.113281 42.25 -44.785156 41.925781 -45.503906 C 41.488281 -46.472656 40.8125 -47.148438 39.898438 -47.53125 C 40.90625 -47.109375 42.019531 -46.574219 43.234375 -45.925781 L 43.308594 -45.890625 L 43.375 -45.847656 C 44.554688 -45.175781 45.519531 -44.324219 46.265625 -43.300781 C 47.085938 -42.171875 47.59375 -40.910156 47.792969 -39.511719 C 48.019531 -37.933594 47.933594 -36.054688 47.539062 -33.875 L 46.476562 -28.363281 C 45.359375 -22.515625 43.273438 -17.949219 40.21875 -14.664062 C 36.796875 -10.980469 33.117188 -9.140625 29.183594 -9.140625 C 27.273438 -9.140625 25.605469 -9.609375 24.175781 -10.542969 C 22.570312 -11.597656 21.460938 -13.082031 20.855469 -15.003906 C 20.136719 -17.289062 20.089844 -19.84375 20.71875 -22.675781 L 26.457031 -49.984375 C 26.496094 -50.160156 26.515625 -50.296875 26.527344 -50.402344 L 26.527344 -50.410156 C 26.527344 -50.371094 26.53125 -50.320312 26.539062 -50.265625 C 26.617188 -49.542969 26.960938 -48.875 27.574219 -48.265625 C 27.996094 -47.84375 28.398438 -47.585938 28.78125 -47.488281 C 28.605469 -47.535156 28.277344 -47.554688 27.804688 -47.554688 C 26.085938 -47.554688 23.777344 -47.175781 20.875 -46.410156 C 17.613281 -45.550781 14.621094 -44.679688 11.890625 -43.792969 L 10.1875 -49.027344 L 12.070312 -43.855469 C 10.730469 -43.367188 9.582031 -42.878906 8.625 -42.382812 C 8.773438 -42.460938 8.925781 -42.601562 9.082031 -42.804688 C 9.28125 -43.066406 9.40625 -43.335938 9.453125 -43.613281 L 9.445312 -43.554688 L 9.429688 -43.492188 C 9.554688 -44.113281 9.457031 -44.785156 9.132812 -45.503906 C 8.695312 -46.472656 8.019531 -47.148438 7.105469 -47.53125 C 8.117188 -47.109375 9.226562 -46.574219 10.445312 -45.925781 L 10.515625 -45.890625 L 10.585938 -45.847656 C 11.765625 -45.175781 12.726562 -44.324219 13.472656 -43.300781 C 14.292969 -42.171875 14.800781 -40.910156 15 -39.511719 C 15.226562 -37.933594 15.144531 -36.070312 14.753906 -33.929688 L 14.738281 -33.839844 L 11.21875 -17.515625 C 10.191406 -12.753906 10.390625 -9.238281 11.820312 -6.96875 C 12.398438 -6.050781 13.105469 -5.378906 13.933594 -4.953125 C 14.871094 -4.472656 16.0625 -4.230469 17.511719 -4.230469 Z M 17.511719 -4.230469 "/></g></g></g><g fill="#fee4e3" fill-opacity="1"><g transform="translate(135.283719, 111.887773)"><g><path d="M 46.800781 6.777344 C 42.320312 6.777344 38.566406 5.558594 35.542969 3.117188 C 32.820312 0.921875 30.714844 -1.902344 29.222656 -5.347656 C 27.933594 -8.332031 26.953125 -11.554688 26.273438 -15.023438 C 25.640625 -18.273438 25.171875 -21.433594 24.871094 -24.511719 C 24.890625 -24.253906 25.011719 -23.917969 25.226562 -23.503906 C 25.484375 -23.003906 25.839844 -22.558594 26.285156 -22.171875 C 26.863281 -21.667969 27.527344 -21.324219 28.273438 -21.136719 C 29.5 -20.828125 30.640625 -20.980469 31.695312 -21.589844 C 32.089844 -21.816406 32.382812 -22.054688 32.574219 -22.300781 L 28.230469 -25.683594 L 32.707031 -22.480469 L 30.054688 -18.765625 C 29.640625 -18.183594 29.375 -17.738281 29.265625 -17.433594 C 29.046875 -16.832031 28.820312 -16.0625 28.582031 -15.113281 L 23.242188 -16.449219 L 28.628906 -15.316406 C 28.363281 -14.058594 28.117188 -12.699219 27.882812 -11.234375 C 27.648438 -9.761719 27.429688 -8.113281 27.226562 -6.289062 L 21.753906 -6.898438 L 27.246094 -6.476562 C 27.007812 -3.390625 25.992188 -0.855469 24.203125 1.136719 C 22.40625 3.128906 19.617188 4.46875 15.835938 5.152344 C 12.992188 5.667969 8.871094 5.960938 3.472656 6.035156 C 1.910156 6.035156 0.523438 5.785156 -0.683594 5.28125 C -2.277344 4.617188 -3.523438 3.582031 -4.425781 2.171875 C -5.875 -0.09375 -6.203125 -2.652344 -5.410156 -5.507812 C -4.898438 -7.34375 -4.398438 -9.015625 -3.921875 -10.523438 C -3.480469 -11.910156 -3.042969 -13.402344 -2.601562 -15 C -2.171875 -16.554688 -1.71875 -18.445312 -1.246094 -20.667969 L 6.824219 -57.941406 L 12.203125 -56.777344 L 6.789062 -57.761719 C 6.964844 -58.730469 7.023438 -59.417969 6.964844 -59.816406 C 7.023438 -59.410156 7.179688 -59.03125 7.433594 -58.683594 C 7.613281 -58.4375 7.796875 -58.257812 7.988281 -58.152344 L 10.71875 -62.929688 L 8.128906 -58.074219 C 7.21875 -58.554688 6.421875 -58.941406 5.734375 -59.226562 C 3.972656 -59.964844 2.710938 -61.167969 1.957031 -62.847656 C 1.316406 -64.273438 1.164062 -65.828125 1.5 -67.511719 L 6.898438 -66.433594 L 1.476562 -67.390625 C 1.738281 -68.871094 2.3125 -70.195312 3.199219 -71.355469 C 4.046875 -72.460938 5.128906 -73.355469 6.445312 -74.03125 C 7.820312 -74.742188 9.394531 -75.417969 11.171875 -76.0625 L 11.261719 -76.097656 L 11.351562 -76.125 C 14.28125 -77.078125 17.476562 -78.007812 20.9375 -78.921875 C 24.757812 -79.925781 28 -80.429688 30.667969 -80.429688 C 34.027344 -80.429688 36.546875 -79.589844 38.222656 -77.914062 C 40.242188 -75.894531 40.863281 -73.09375 40.082031 -69.507812 L 33.195312 -36.445312 C 33.183594 -36.390625 33.175781 -36.355469 33.171875 -36.332031 C 33.171875 -36.335938 33.171875 -36.339844 33.175781 -36.355469 C 33.1875 -36.480469 33.1875 -36.632812 33.171875 -36.804688 C 33.074219 -37.949219 32.558594 -38.9375 31.621094 -39.773438 C 30.539062 -40.734375 29.277344 -41.164062 27.84375 -41.054688 C 27.136719 -41 26.5 -40.8125 25.933594 -40.492188 C 25.773438 -40.398438 25.648438 -40.3125 25.566406 -40.242188 C 25.613281 -40.28125 25.6875 -40.359375 25.785156 -40.464844 L 29.820312 -36.71875 L 25.664062 -40.332031 C 28.597656 -43.699219 31.425781 -46.710938 34.152344 -49.367188 C 37.152344 -52.285156 40.265625 -54.59375 43.496094 -56.289062 C 47.054688 -58.160156 50.882812 -59.097656 54.972656 -59.097656 C 59.757812 -59.097656 63.652344 -57.675781 66.660156 -54.832031 C 69.753906 -51.90625 71.300781 -48.417969 71.300781 -44.359375 C 71.300781 -41.011719 70.382812 -38.199219 68.542969 -35.917969 C 66.417969 -33.277344 63.449219 -31.957031 59.640625 -31.957031 C 56.292969 -31.957031 53.71875 -33.039062 51.910156 -35.210938 C 50.691406 -36.671875 49.871094 -38.179688 49.449219 -39.726562 C 49.417969 -39.832031 49.394531 -39.898438 49.382812 -39.921875 C 49.507812 -39.683594 49.703125 -39.4375 49.976562 -39.1875 C 50.398438 -38.800781 50.855469 -38.535156 51.34375 -38.394531 C 51.507812 -38.347656 51.621094 -38.324219 51.683594 -38.324219 C 51.996094 -38.324219 52.265625 -38.359375 52.492188 -38.433594 L 52.515625 -38.4375 C 52.472656 -38.421875 52.417969 -38.394531 52.355469 -38.359375 C 51.886719 -38.101562 51.277344 -37.664062 50.523438 -37.039062 L 47.011719 -41.28125 L 50.714844 -37.207031 C 50.605469 -37.109375 50.535156 -37.035156 50.5 -36.988281 C 50.558594 -37.070312 50.617188 -37.1875 50.671875 -37.339844 C 50.765625 -37.609375 50.808594 -37.832031 50.804688 -38.015625 C 50.808594 -37.929688 50.832031 -37.773438 50.886719 -37.554688 C 52.28125 -31.828125 53.453125 -27.214844 54.398438 -23.722656 C 55.203125 -20.734375 55.964844 -18.6875 56.679688 -17.574219 C 56.738281 -17.484375 56.789062 -17.417969 56.824219 -17.382812 C 56.792969 -17.410156 56.746094 -17.445312 56.679688 -17.488281 C 56.441406 -17.636719 56.1875 -17.710938 55.925781 -17.710938 C 56.101562 -17.710938 56.207031 -17.714844 56.246094 -17.722656 C 56 -17.664062 55.738281 -17.539062 55.457031 -17.339844 C 55.988281 -17.714844 56.539062 -18.125 57.109375 -18.566406 L 60.488281 -14.21875 L 56.769531 -18.277344 C 57.722656 -19.152344 58.726562 -19.785156 59.777344 -20.175781 C 61.339844 -20.757812 62.890625 -20.804688 64.429688 -20.320312 C 66.582031 -19.640625 68.1875 -18.25 69.234375 -16.152344 C 70.324219 -13.96875 70.421875 -11.761719 69.527344 -9.523438 L 64.417969 -11.566406 L 69.605469 -9.726562 C 68.640625 -7.011719 67.269531 -4.457031 65.488281 -2.070312 C 63.550781 0.527344 61.074219 2.640625 58.058594 4.265625 C 54.945312 5.941406 51.191406 6.777344 46.800781 6.777344 Z M 46.800781 -4.230469 C 49.339844 -4.230469 51.355469 -4.632812 52.839844 -5.429688 C 54.421875 -6.285156 55.695312 -7.355469 56.660156 -8.648438 C 57.777344 -10.152344 58.636719 -11.738281 59.226562 -13.410156 L 59.304688 -13.613281 C 58.976562 -12.789062 59.003906 -11.996094 59.386719 -11.226562 C 59.726562 -10.542969 60.304688 -10.074219 61.113281 -9.820312 C 61.980469 -9.546875 62.816406 -9.558594 63.617188 -9.855469 C 63.910156 -9.964844 64.105469 -10.066406 64.210938 -10.160156 L 64.046875 -10.011719 L 63.871094 -9.875 C 63.167969 -9.328125 62.480469 -8.816406 61.808594 -8.34375 C 60.253906 -7.246094 58.292969 -6.699219 55.925781 -6.699219 C 54.109375 -6.699219 52.433594 -7.171875 50.902344 -8.113281 C 49.546875 -8.949219 48.390625 -10.113281 47.425781 -11.609375 C 46.089844 -13.679688 44.871094 -16.761719 43.765625 -20.851562 C 42.800781 -24.429688 41.601562 -29.160156 40.167969 -35.03125 C 39.640625 -37.277344 39.675781 -39.257812 40.277344 -40.976562 C 40.832031 -42.5625 41.84375 -44.023438 43.308594 -45.355469 L 43.402344 -45.441406 L 43.503906 -45.523438 C 44.800781 -46.597656 45.992188 -47.429688 47.082031 -48.023438 C 48.683594 -48.898438 50.214844 -49.335938 51.683594 -49.335938 C 54.027344 -49.335938 55.941406 -48.65625 57.417969 -47.304688 C 58.605469 -46.214844 59.492188 -44.652344 60.070312 -42.625 C 60.058594 -42.664062 60.046875 -42.699219 60.035156 -42.726562 C 60.039062 -42.722656 60.046875 -42.710938 60.054688 -42.691406 C 60.121094 -42.574219 60.226562 -42.429688 60.367188 -42.257812 C 60.085938 -42.597656 59.773438 -42.828125 59.425781 -42.953125 C 59.390625 -42.96875 59.359375 -42.976562 59.332031 -42.984375 C 59.410156 -42.972656 59.511719 -42.964844 59.640625 -42.964844 C 59.9375 -42.964844 60.132812 -42.988281 60.230469 -43.027344 C 60.132812 -42.984375 60.046875 -42.917969 59.96875 -42.824219 C 60.183594 -43.089844 60.289062 -43.601562 60.289062 -44.359375 C 60.289062 -45.253906 59.890625 -46.078125 59.09375 -46.832031 C 58.210938 -47.667969 56.835938 -48.085938 54.972656 -48.085938 C 52.695312 -48.085938 50.574219 -47.570312 48.617188 -46.542969 C 46.332031 -45.339844 44.066406 -43.652344 41.832031 -41.472656 C 39.324219 -39.035156 36.703125 -36.246094 33.976562 -33.105469 L 33.914062 -33.039062 L 33.855469 -32.972656 C 33.011719 -32.066406 32.195312 -31.386719 31.398438 -30.929688 C 30.523438 -30.429688 29.617188 -30.144531 28.671875 -30.074219 C 27.003906 -29.949219 25.546875 -30.4375 24.304688 -31.542969 C 22.386719 -33.246094 21.757812 -35.628906 22.414062 -38.691406 L 29.320312 -71.847656 C 29.359375 -72.019531 29.382812 -72.15625 29.390625 -72.261719 L 29.394531 -72.273438 C 29.394531 -72.230469 29.394531 -72.183594 29.402344 -72.125 C 29.484375 -71.402344 29.828125 -70.738281 30.4375 -70.128906 C 30.859375 -69.703125 31.265625 -69.445312 31.648438 -69.351562 C 31.46875 -69.394531 31.144531 -69.417969 30.667969 -69.417969 C 28.949219 -69.417969 26.640625 -69.035156 23.738281 -68.273438 C 20.480469 -67.414062 17.484375 -66.542969 14.753906 -65.652344 L 13.054688 -70.890625 L 14.933594 -65.714844 C 13.597656 -65.230469 12.449219 -64.738281 11.488281 -64.246094 C 11.636719 -64.320312 11.792969 -64.460938 11.949219 -64.667969 C 12.144531 -64.925781 12.269531 -65.195312 12.320312 -65.476562 L 12.296875 -65.351562 C 12.421875 -65.976562 12.320312 -66.648438 12 -67.367188 C 11.5625 -68.335938 10.886719 -69.011719 9.96875 -69.390625 C 10.980469 -68.972656 12.09375 -68.4375 13.308594 -67.789062 L 13.449219 -67.710938 C 14.628906 -67.035156 15.59375 -66.1875 16.339844 -65.160156 C 17.15625 -64.035156 17.667969 -62.773438 17.867188 -61.375 C 18.09375 -59.792969 18.011719 -57.933594 17.621094 -55.789062 L 17.605469 -55.699219 L 9.523438 -18.382812 C 9.007812 -15.941406 8.503906 -13.832031 8.011719 -12.0625 C 7.535156 -10.335938 7.054688 -8.710938 6.574219 -7.195312 C 6.132812 -5.804688 5.675781 -4.261719 5.199219 -2.558594 L 5.191406 -2.539062 C 5.199219 -2.617188 5.199219 -2.707031 5.1875 -2.808594 C 5.152344 -3.144531 5.042969 -3.464844 4.847656 -3.765625 C 4.511719 -4.289062 4.078125 -4.664062 3.550781 -4.882812 C 3.429688 -4.933594 3.324219 -4.964844 3.238281 -4.980469 C 3.261719 -4.976562 3.289062 -4.976562 3.320312 -4.972656 C 8.109375 -5.039062 11.628906 -5.277344 13.878906 -5.683594 C 14.734375 -5.835938 15.402344 -6.019531 15.886719 -6.230469 C 16.015625 -6.285156 16.109375 -6.335938 16.171875 -6.375 C 16.132812 -6.347656 16.082031 -6.300781 16.019531 -6.230469 C 16.035156 -6.25 16.058594 -6.296875 16.089844 -6.378906 C 16.175781 -6.609375 16.234375 -6.925781 16.265625 -7.320312 L 16.273438 -7.414062 L 16.285156 -7.507812 C 16.503906 -9.503906 16.746094 -11.320312 17.007812 -12.964844 C 17.269531 -14.609375 17.550781 -16.148438 17.851562 -17.582031 L 17.898438 -17.785156 C 18.230469 -19.101562 18.566406 -20.238281 18.914062 -21.195312 C 19.371094 -22.445312 20.097656 -23.769531 21.09375 -25.167969 L 23.8125 -28.972656 L 23.882812 -29.0625 C 24.570312 -29.945312 25.339844 -30.636719 26.195312 -31.128906 C 27.707031 -32 29.292969 -32.230469 30.945312 -31.820312 C 32.761719 -31.363281 34.113281 -30.28125 35 -28.574219 C 35.460938 -27.683594 35.738281 -26.683594 35.832031 -25.578125 C 36.097656 -22.855469 36.511719 -20.039062 37.082031 -17.132812 C 37.605469 -14.445312 38.355469 -11.972656 39.332031 -9.71875 C 40.105469 -7.933594 41.144531 -6.511719 42.457031 -5.453125 C 43.464844 -4.636719 44.914062 -4.230469 46.800781 -4.230469 Z M 46.800781 -4.230469 "/></g></g></g><g fill="#fee4e3" fill-opacity="1"><g transform="translate(197.997771, 111.887773)"><g><path d="M 19.871094 -52.652344 C 15.429688 -52.542969 12.039062 -53.628906 9.695312 -55.902344 C 8.40625 -57.15625 7.515625 -58.578125 7.015625 -60.175781 C 6.503906 -61.808594 6.441406 -63.503906 6.824219 -65.265625 C 7.503906 -68.441406 9.214844 -71.210938 11.949219 -73.574219 C 14.285156 -75.589844 17.167969 -77.1875 20.589844 -78.375 C 23.933594 -79.53125 27.433594 -80.109375 31.09375 -80.109375 L 31.09375 -74.605469 L 30.953125 -80.109375 C 35.289062 -80.21875 38.59375 -79.132812 40.875 -76.851562 C 42.144531 -75.585938 43.007812 -74.117188 43.46875 -72.453125 C 43.90625 -70.875 43.949219 -69.21875 43.601562 -67.476562 L 43.585938 -67.394531 L 43.570312 -67.316406 C 42.878906 -64.332031 41.191406 -61.652344 38.503906 -59.28125 C 36.164062 -57.214844 33.347656 -55.605469 30.054688 -54.445312 C 26.886719 -53.332031 23.492188 -52.734375 19.867188 -52.652344 Z M 19.609375 -63.660156 C 22.070312 -63.714844 24.335938 -64.109375 26.402344 -64.835938 C 28.347656 -65.519531 29.949219 -66.417969 31.21875 -67.535156 C 32.140625 -68.347656 32.679688 -69.101562 32.839844 -69.792969 L 38.203125 -68.554688 L 32.804688 -69.636719 C 32.816406 -69.691406 32.820312 -69.722656 32.820312 -69.734375 C 32.824219 -69.671875 32.835938 -69.597656 32.859375 -69.511719 C 32.914062 -69.316406 32.992188 -69.167969 33.089844 -69.066406 C 33.171875 -68.988281 33.242188 -68.929688 33.3125 -68.890625 C 33.292969 -68.902344 33.238281 -68.917969 33.15625 -68.941406 C 32.703125 -69.070312 32.0625 -69.121094 31.234375 -69.101562 L 31.164062 -69.097656 L 31.09375 -69.097656 C 28.667969 -69.097656 26.367188 -68.722656 24.191406 -67.96875 C 22.097656 -67.242188 20.414062 -66.332031 19.144531 -65.234375 C 18.273438 -64.484375 17.753906 -63.714844 17.582031 -62.929688 C 17.613281 -63.0625 17.59375 -63.238281 17.523438 -63.457031 C 17.46875 -63.640625 17.414062 -63.753906 17.367188 -63.800781 C 17.304688 -63.863281 17.253906 -63.902344 17.210938 -63.925781 C 17.261719 -63.898438 17.34375 -63.871094 17.464844 -63.835938 C 17.980469 -63.695312 18.691406 -63.636719 19.605469 -63.660156 Z M 16.023438 6.777344 C 10.144531 6.777344 5.78125 5.296875 2.929688 2.332031 C 0.136719 -0.574219 -1.261719 -4.359375 -1.261719 -9.019531 C -1.261719 -12.664062 -0.707031 -16.652344 0.394531 -20.992188 L 3.980469 -36.179688 C 4.078125 -36.585938 4.132812 -36.925781 4.144531 -37.203125 C 4.148438 -37.28125 4.144531 -37.347656 4.140625 -37.402344 L 4.144531 -37.390625 C 4.234375 -37.019531 4.453125 -36.71875 4.800781 -36.488281 L 7.851562 -41.070312 L 5.261719 -36.210938 C 4.355469 -36.695312 3.558594 -37.082031 2.871094 -37.367188 C 1.105469 -38.101562 -0.152344 -39.308594 -0.910156 -40.984375 C -1.550781 -42.410156 -1.703125 -43.96875 -1.367188 -45.652344 L 4.03125 -44.570312 L -1.390625 -45.527344 C -1.125 -47.027344 -0.539062 -48.359375 0.367188 -49.523438 C 1.238281 -50.636719 2.347656 -51.523438 3.699219 -52.179688 C 5.039062 -52.828125 6.574219 -53.464844 8.304688 -54.097656 C 11.316406 -55.148438 14.570312 -56.136719 18.074219 -57.058594 C 21.890625 -58.0625 25.136719 -58.566406 27.804688 -58.566406 C 31.164062 -58.566406 33.683594 -57.730469 35.359375 -56.050781 C 37.375 -54.035156 37.996094 -51.230469 37.214844 -47.648438 L 30.527344 -17.179688 C 30.441406 -16.765625 30.402344 -16.457031 30.402344 -16.25 C 30.398438 -16.515625 30.292969 -16.847656 30.082031 -17.253906 C 29.847656 -17.699219 29.484375 -18.089844 28.996094 -18.421875 C 28.335938 -18.867188 27.621094 -19.089844 26.847656 -19.089844 C 26.1875 -19.089844 25.605469 -18.871094 25.101562 -18.433594 C 25.597656 -18.867188 26.21875 -19.421875 26.964844 -20.097656 L 27.054688 -20.179688 L 27.144531 -20.253906 C 28.15625 -21.097656 29.242188 -21.6875 30.402344 -22.027344 C 31.78125 -22.429688 33.164062 -22.457031 34.550781 -22.109375 C 36.019531 -21.742188 37.265625 -21.011719 38.296875 -19.921875 C 39.171875 -18.992188 39.8125 -17.867188 40.226562 -16.542969 C 40.992188 -14.074219 40.566406 -11.285156 38.949219 -8.179688 L 34.066406 -10.71875 L 39.058594 -8.398438 C 37.875 -5.847656 36.15625 -3.421875 33.910156 -1.132812 C 31.667969 1.152344 29.082031 3.019531 26.152344 4.460938 C 23.015625 6.007812 19.636719 6.777344 16.023438 6.777344 Z M 16.023438 -4.230469 C 17.929688 -4.230469 19.683594 -4.625 21.285156 -5.417969 C 23.09375 -6.308594 24.683594 -7.449219 26.050781 -8.84375 C 27.410156 -10.230469 28.417969 -11.628906 29.070312 -13.035156 L 29.125 -13.148438 L 29.179688 -13.257812 C 29.414062 -13.703125 29.550781 -14.035156 29.597656 -14.25 C 29.546875 -14.007812 29.582031 -13.683594 29.710938 -13.277344 C 29.800781 -12.980469 29.992188 -12.675781 30.285156 -12.367188 C 30.730469 -11.894531 31.261719 -11.582031 31.882812 -11.425781 C 32.421875 -11.292969 32.953125 -11.300781 33.484375 -11.457031 C 33.792969 -11.546875 34.03125 -11.660156 34.195312 -11.796875 L 30.667969 -16.023438 L 34.371094 -11.949219 C 33.5625 -11.214844 32.875 -10.601562 32.3125 -10.113281 C 30.746094 -8.757812 28.925781 -8.078125 26.847656 -8.078125 C 25.367188 -8.078125 24.027344 -8.488281 22.820312 -9.304688 C 21.78125 -10.007812 20.949219 -10.953125 20.328125 -12.144531 C 19.328125 -14.050781 19.144531 -16.515625 19.773438 -19.539062 L 26.457031 -49.984375 C 26.496094 -50.160156 26.515625 -50.296875 26.527344 -50.402344 L 26.527344 -50.410156 C 26.527344 -50.371094 26.53125 -50.320312 26.539062 -50.265625 C 26.617188 -49.542969 26.960938 -48.875 27.574219 -48.265625 C 27.996094 -47.84375 28.398438 -47.585938 28.78125 -47.488281 C 28.605469 -47.535156 28.277344 -47.554688 27.804688 -47.554688 C 26.085938 -47.554688 23.777344 -47.175781 20.875 -46.410156 C 17.65625 -45.5625 14.71875 -44.675781 12.070312 -43.75 C 10.691406 -43.246094 9.5 -42.753906 8.503906 -42.269531 C 8.6875 -42.359375 8.871094 -42.519531 9.050781 -42.75 C 9.265625 -43.027344 9.402344 -43.316406 9.453125 -43.613281 L 9.445312 -43.554688 L 9.429688 -43.492188 C 9.554688 -44.113281 9.457031 -44.785156 9.132812 -45.503906 C 8.695312 -46.472656 8.019531 -47.148438 7.105469 -47.53125 C 8.117188 -47.109375 9.226562 -46.574219 10.445312 -45.925781 L 10.683594 -45.800781 L 10.90625 -45.648438 C 12.949219 -44.289062 14.265625 -42.394531 14.851562 -39.972656 C 15.304688 -38.09375 15.253906 -35.984375 14.695312 -33.648438 L 11.066406 -18.273438 C 10.1875 -14.828125 9.75 -11.746094 9.75 -9.019531 C 9.75 -7.316406 10.121094 -6.074219 10.867188 -5.300781 C 11.085938 -5.074219 11.496094 -4.867188 12.097656 -4.6875 C 13.101562 -4.382812 14.410156 -4.230469 16.023438 -4.230469 Z M 16.023438 -4.230469 "/></g></g></g><g fill="#db0227" fill-opacity="1"><g transform="translate(9.749486, 111.887773)"><g><path d="M 17.296875 19.421875 C 12.554688 19.421875 8.785156 18.75 5.984375 17.40625 C 3.191406 16.0625 1.125 14.578125 -0.21875 12.953125 C -1.84375 11.109375 -2.632812 9.160156 -2.59375 7.109375 C -2.5625 5.054688 -1.925781 3.304688 -0.6875 1.859375 C 0.550781 0.410156 2.125 -0.3125 4.03125 -0.3125 C 5.9375 -0.3125 7.347656 0.179688 8.265625 1.171875 C 9.191406 2.160156 10.046875 3.539062 10.828125 5.3125 C 11.816406 7.425781 12.910156 8.992188 14.109375 10.015625 C 15.316406 11.046875 17.015625 11.5625 19.203125 11.5625 C 21.535156 11.5625 23.816406 10.550781 26.046875 8.53125 C 28.273438 6.519531 30.34375 3.941406 32.25 0.796875 C 34.164062 -2.347656 35.726562 -5.550781 36.9375 -8.8125 C 34.101562 -6.1875 31.375 -4.414062 28.75 -3.5 C 26.132812 -2.582031 23.769531 -2.125 21.65625 -2.125 C 14.789062 -2.125 10.1875 -4 7.84375 -7.75 C 5.507812 -11.5 5.050781 -16.660156 6.46875 -23.234375 L 9.234375 -34.921875 C 9.515625 -36.472656 9.582031 -37.742188 9.4375 -38.734375 C 9.300781 -39.722656 8.738281 -40.503906 7.75 -41.078125 C 6.6875 -41.640625 5.726562 -42.097656 4.875 -42.453125 C 4.03125 -42.804688 3.710938 -43.515625 3.921875 -44.578125 C 4.140625 -45.773438 4.832031 -46.675781 6 -47.28125 C 7.164062 -47.882812 8.523438 -48.46875 10.078125 -49.03125 C 12.910156 -49.945312 16.003906 -50.847656 19.359375 -51.734375 C 22.722656 -52.617188 25.503906 -53.0625 27.703125 -53.0625 C 29.535156 -53.0625 30.753906 -52.757812 31.359375 -52.15625 C 31.960938 -51.5625 32.085938 -50.445312 31.734375 -48.8125 L 25.578125 -19.953125 C 24.867188 -16.765625 24.691406 -14.515625 25.046875 -13.203125 C 25.398438 -11.898438 26.351562 -11.25 27.90625 -11.25 C 30.3125 -11.25 32.3125 -11.8125 33.90625 -12.9375 C 35.5 -14.070312 36.804688 -15.523438 37.828125 -17.296875 C 38.859375 -19.066406 39.691406 -20.921875 40.328125 -22.859375 C 40.960938 -24.804688 41.492188 -26.5625 41.921875 -28.125 C 42.484375 -30.175781 42.691406 -32.347656 42.546875 -34.640625 C 42.410156 -36.941406 41.390625 -38.941406 39.484375 -40.640625 C 38.773438 -41.273438 38.207031 -42.140625 37.78125 -43.234375 C 37.351562 -44.335938 37.210938 -45.488281 37.359375 -46.6875 C 37.566406 -49.238281 38.625 -51.113281 40.53125 -52.3125 C 42.445312 -53.519531 44.695312 -53.984375 47.28125 -53.703125 C 49.863281 -53.421875 52.179688 -52.285156 54.234375 -50.296875 C 56.421875 -48.316406 58.132812 -45.609375 59.375 -42.171875 C 60.613281 -38.742188 61.160156 -35.050781 61.015625 -31.09375 C 60.878906 -26.988281 60.257812 -22.707031 59.15625 -18.25 C 58.0625 -13.789062 56.523438 -9.472656 54.546875 -5.296875 C 52.566406 -1.128906 50.125 2.613281 47.21875 5.9375 C 43.6875 10.113281 39.425781 13.40625 34.4375 15.8125 C 29.445312 18.21875 23.734375 19.421875 17.296875 19.421875 Z M 17.296875 19.421875 "/></g></g></g><g fill="#db0227" fill-opacity="1"><g transform="translate(68.961718, 111.887773)"><g><path d="M 17.515625 1.28125 C 12.835938 1.28125 9.382812 -0.488281 7.15625 -4.03125 C 4.9375 -7.570312 4.5 -12.453125 5.84375 -18.671875 L 9.34375 -34.921875 C 9.625 -36.472656 9.691406 -37.742188 9.546875 -38.734375 C 9.410156 -39.722656 8.847656 -40.503906 7.859375 -41.078125 C 6.796875 -41.640625 5.835938 -42.097656 4.984375 -42.453125 C 4.140625 -42.804688 3.820312 -43.515625 4.03125 -44.578125 C 4.238281 -45.773438 4.925781 -46.675781 6.09375 -47.28125 C 7.269531 -47.882812 8.632812 -48.46875 10.1875 -49.03125 C 13.019531 -49.945312 16.113281 -50.847656 19.46875 -51.734375 C 22.832031 -52.617188 25.613281 -53.0625 27.8125 -53.0625 C 29.644531 -53.0625 30.863281 -52.757812 31.46875 -52.15625 C 32.070312 -51.5625 32.195312 -50.445312 31.84375 -48.8125 L 26.109375 -21.546875 C 25.679688 -19.628906 25.679688 -18 26.109375 -16.65625 C 26.535156 -15.3125 27.5625 -14.640625 29.1875 -14.640625 C 31.519531 -14.640625 33.851562 -15.894531 36.1875 -18.40625 C 38.519531 -20.925781 40.148438 -24.585938 41.078125 -29.390625 L 42.125 -34.921875 C 42.414062 -36.472656 42.488281 -37.742188 42.34375 -38.734375 C 42.195312 -39.722656 41.628906 -40.503906 40.640625 -41.078125 C 39.578125 -41.640625 38.617188 -42.097656 37.765625 -42.453125 C 36.921875 -42.804688 36.609375 -43.515625 36.828125 -44.578125 C 37.035156 -45.773438 37.722656 -46.675781 38.890625 -47.28125 C 40.054688 -47.882812 41.421875 -48.46875 42.984375 -49.03125 C 45.804688 -49.945312 48.898438 -50.847656 52.265625 -51.734375 C 55.628906 -52.617188 58.40625 -53.0625 60.59375 -53.0625 C 62.4375 -53.0625 63.65625 -52.757812 64.25 -52.15625 C 64.851562 -51.5625 64.976562 -50.445312 64.625 -48.8125 L 58.046875 -17.296875 C 57.765625 -16.023438 57.816406 -15.085938 58.203125 -14.484375 C 58.597656 -13.878906 59.148438 -13.578125 59.859375 -13.578125 C 60.566406 -13.578125 61.179688 -13.789062 61.703125 -14.21875 C 62.234375 -14.644531 62.960938 -15.210938 63.890625 -15.921875 C 64.671875 -16.554688 65.46875 -16.785156 66.28125 -16.609375 C 67.09375 -16.429688 67.65625 -15.847656 67.96875 -14.859375 C 68.289062 -13.867188 68.023438 -12.488281 67.171875 -10.71875 C 65.828125 -7.601562 63.613281 -4.820312 60.53125 -2.375 C 57.457031 0.0625 53.90625 1.28125 49.875 1.28125 C 47.332031 1.28125 45.28125 0.710938 43.71875 -0.421875 C 42.164062 -1.554688 41.050781 -3.023438 40.375 -4.828125 C 39.707031 -6.628906 39.335938 -8.554688 39.265625 -10.609375 C 39.191406 -11.179688 38.976562 -11.519531 38.625 -11.625 C 38.269531 -11.726562 37.882812 -11.460938 37.46875 -10.828125 C 36.257812 -9.054688 34.71875 -7.234375 32.84375 -5.359375 C 30.96875 -3.484375 28.753906 -1.90625 26.203125 -0.625 C 23.660156 0.644531 20.765625 1.28125 17.515625 1.28125 Z M 17.515625 1.28125 "/></g></g></g><g fill="#db0227" fill-opacity="1"><g transform="translate(135.283719, 111.887773)"><g><path d="M 46.796875 1.28125 C 43.617188 1.28125 41.019531 0.46875 39 -1.15625 C 36.976562 -2.789062 35.398438 -4.914062 34.265625 -7.53125 C 33.140625 -10.15625 32.273438 -13.003906 31.671875 -16.078125 C 31.078125 -19.148438 30.640625 -22.140625 30.359375 -25.046875 C 30.285156 -25.890625 30.035156 -26.363281 29.609375 -26.46875 C 29.179688 -26.582031 28.722656 -26.320312 28.234375 -25.6875 L 25.578125 -21.96875 C 24.867188 -20.976562 24.375 -20.09375 24.09375 -19.3125 C 23.8125 -18.53125 23.523438 -17.578125 23.234375 -16.453125 C 22.953125 -15.109375 22.6875 -13.65625 22.4375 -12.09375 C 22.195312 -10.539062 21.96875 -8.804688 21.75 -6.890625 C 21.613281 -5.054688 21.066406 -3.609375 20.109375 -2.546875 C 19.148438 -1.484375 17.394531 -0.722656 14.84375 -0.265625 C 12.300781 0.191406 8.484375 0.457031 3.390625 0.53125 C 1.835938 0.53125 0.773438 0.0859375 0.203125 -0.796875 C -0.359375 -1.679688 -0.460938 -2.757812 -0.109375 -4.03125 C 0.390625 -5.800781 0.867188 -7.410156 1.328125 -8.859375 C 1.785156 -10.304688 2.242188 -11.863281 2.703125 -13.53125 C 3.160156 -15.195312 3.640625 -17.195312 4.140625 -19.53125 L 12.203125 -56.78125 C 12.484375 -58.332031 12.550781 -59.601562 12.40625 -60.59375 C 12.269531 -61.582031 11.707031 -62.363281 10.71875 -62.9375 C 9.65625 -63.5 8.695312 -63.957031 7.84375 -64.3125 C 7 -64.664062 6.679688 -65.375 6.890625 -66.4375 C 7.109375 -67.632812 7.800781 -68.535156 8.96875 -69.140625 C 10.132812 -69.742188 11.492188 -70.328125 13.046875 -70.890625 C 15.878906 -71.804688 18.972656 -72.707031 22.328125 -73.59375 C 25.691406 -74.476562 28.472656 -74.921875 30.671875 -74.921875 C 32.503906 -74.921875 33.722656 -74.617188 34.328125 -74.015625 C 34.929688 -73.421875 35.054688 -72.304688 34.703125 -70.671875 L 27.8125 -37.5625 C 27.59375 -36.570312 27.640625 -35.9375 27.953125 -35.65625 C 28.273438 -35.375 28.898438 -35.726562 29.828125 -36.71875 C 32.648438 -39.96875 35.367188 -42.863281 37.984375 -45.40625 C 40.609375 -47.957031 43.300781 -49.957031 46.0625 -51.40625 C 48.820312 -52.863281 51.789062 -53.59375 54.96875 -53.59375 C 58.289062 -53.59375 60.925781 -52.671875 62.875 -50.828125 C 64.820312 -48.992188 65.796875 -46.835938 65.796875 -44.359375 C 65.796875 -42.304688 65.28125 -40.644531 64.25 -39.375 C 63.226562 -38.101562 61.691406 -37.46875 59.640625 -37.46875 C 58.015625 -37.46875 56.847656 -37.890625 56.140625 -38.734375 C 55.429688 -39.585938 54.972656 -40.398438 54.765625 -41.171875 C 54.484375 -42.160156 54.128906 -42.847656 53.703125 -43.234375 C 53.273438 -43.628906 52.601562 -43.828125 51.6875 -43.828125 C 50.625 -43.828125 49.066406 -42.976562 47.015625 -41.28125 C 46.234375 -40.570312 45.71875 -39.863281 45.46875 -39.15625 C 45.226562 -38.445312 45.25 -37.492188 45.53125 -36.296875 C 46.945312 -30.492188 48.128906 -25.820312 49.078125 -22.28125 C 50.035156 -18.75 51.023438 -16.1875 52.046875 -14.59375 C 53.078125 -13 54.367188 -12.203125 55.921875 -12.203125 C 57.128906 -12.203125 58.03125 -12.414062 58.625 -12.84375 C 59.226562 -13.269531 59.847656 -13.726562 60.484375 -14.21875 C 61.335938 -15 62.097656 -15.28125 62.765625 -15.0625 C 63.441406 -14.851562 63.957031 -14.394531 64.3125 -13.6875 C 64.664062 -12.976562 64.703125 -12.269531 64.421875 -11.5625 C 63.640625 -9.375 62.523438 -7.304688 61.078125 -5.359375 C 59.628906 -3.410156 57.753906 -1.816406 55.453125 -0.578125 C 53.148438 0.660156 50.265625 1.28125 46.796875 1.28125 Z M 46.796875 1.28125 "/></g></g></g><g fill="#db0227" fill-opacity="1"><g transform="translate(197.997771, 111.887773)"><g><path d="M 19.734375 -58.15625 C 16.835938 -58.082031 14.769531 -58.644531 13.53125 -59.84375 C 12.289062 -61.050781 11.847656 -62.46875 12.203125 -64.09375 C 12.628906 -66.082031 13.742188 -67.851562 15.546875 -69.40625 C 17.347656 -70.957031 19.628906 -72.210938 22.390625 -73.171875 C 25.148438 -74.128906 28.050781 -74.609375 31.09375 -74.609375 C 33.851562 -74.679688 35.816406 -74.128906 36.984375 -72.953125 C 38.148438 -71.785156 38.554688 -70.320312 38.203125 -68.5625 C 37.773438 -66.71875 36.660156 -65 34.859375 -63.40625 C 33.054688 -61.8125 30.84375 -60.554688 28.21875 -59.640625 C 25.601562 -58.722656 22.773438 -58.226562 19.734375 -58.15625 Z M 16.03125 1.28125 C 11.707031 1.28125 8.660156 0.359375 6.890625 -1.484375 C 5.128906 -3.328125 4.25 -5.835938 4.25 -9.015625 C 4.25 -12.203125 4.742188 -15.742188 5.734375 -19.640625 L 9.34375 -34.921875 C 10.050781 -37.890625 9.554688 -39.941406 7.859375 -41.078125 C 6.796875 -41.640625 5.835938 -42.097656 4.984375 -42.453125 C 4.140625 -42.804688 3.820312 -43.515625 4.03125 -44.578125 C 4.238281 -45.773438 4.925781 -46.65625 6.09375 -47.21875 C 7.269531 -47.789062 8.632812 -48.359375 10.1875 -48.921875 C 13.019531 -49.910156 16.113281 -50.847656 19.46875 -51.734375 C 22.832031 -52.617188 25.613281 -53.0625 27.8125 -53.0625 C 29.644531 -53.0625 30.863281 -52.757812 31.46875 -52.15625 C 32.070312 -51.5625 32.195312 -50.445312 31.84375 -48.8125 L 25.15625 -18.359375 C 24.800781 -16.660156 24.816406 -15.4375 25.203125 -14.6875 C 25.585938 -13.945312 26.132812 -13.578125 26.84375 -13.578125 C 27.550781 -13.578125 28.171875 -13.804688 28.703125 -14.265625 C 29.234375 -14.734375 29.890625 -15.320312 30.671875 -16.03125 C 31.515625 -16.738281 32.359375 -16.984375 33.203125 -16.765625 C 34.054688 -16.554688 34.644531 -15.9375 34.96875 -14.90625 C 35.289062 -13.882812 34.988281 -12.488281 34.0625 -10.71875 C 33.144531 -8.738281 31.785156 -6.828125 29.984375 -4.984375 C 28.179688 -3.148438 26.09375 -1.644531 23.71875 -0.46875 C 21.34375 0.695312 18.78125 1.28125 16.03125 1.28125 Z M 16.03125 1.28125 "/></g></g></g></g></g></svg>